<svg width="43" height="43" viewBox="0 0 43 43" fill="none" xmlns="http://www.w3.org/2000/svg">
<path d="M42.3029 7.0509C42.3029 3.34616 38.9563 0 35.2525 0H7.05145C3.34483 0 0 3.34616 0 7.0509V35.2519C0 38.9568 3.34483 42.3029 7.05145 42.3029L21.1514 42.3028V26.7174H15.5852L15.5853 20.0379H21.1515V16.5244C21.1515 11.787 24.7096 7.52046 29.0856 7.52046H34.7825V14.571H29.0856C28.4605 14.571 27.8309 15.2854 27.8309 16.4201V20.0379L35.0669 20.0378L34.5102 26.7174H27.8308V42.3028L35.2525 42.3029C38.9563 42.3029 42.3029 38.9568 42.3029 35.2519V7.0509Z" fill="#33956D"/>
</svg>
