<svg width="34" height="33" viewBox="0 0 34 33" fill="none" xmlns="http://www.w3.org/2000/svg">
<path d="M33.2296 5.50985C33.2296 2.63997 30.6372 0.0478516 27.768 0.0478516H5.92196C3.05061 0.0478516 0.459534 2.63997 0.459534 5.50985V27.3559C0.459534 30.2258 3.05061 32.8179 5.92196 32.8179L16.8445 32.8179V20.7446H12.5326L12.5327 15.5703H16.8446V12.8485C16.8446 9.17872 19.6009 5.8736 22.9908 5.8736H27.4039V11.3353H22.9908C22.5066 11.3353 22.0188 11.8887 22.0188 12.7677V15.5703L27.6242 15.5702L27.1929 20.7446H22.0187V32.8179L27.768 32.8179C30.6372 32.8179 33.2296 30.2258 33.2296 27.3559V5.50985Z" fill="white"/>
</svg>
