<svg width="60" height="60" viewBox="0 0 60 60" fill="none" xmlns="http://www.w3.org/2000/svg">
<mask id="mask0_1420_700" style="mask-type:alpha" maskUnits="userSpaceOnUse" x="0" y="0" width="60" height="60">
<circle cx="29.9222" cy="29.5455" r="29.5455" fill="#33956D"/>
</mask>
<g mask="url(#mask0_1420_700)">
<path d="M-27.1236 -5.38696H87.3342V64.7646H-27.1236V-5.38696Z" fill="#1E50A0"/>
<path d="M37.4897 16.5003V22.3044H56.2848L87.3342 3.27306V-5.38696H73.2042L37.4897 16.5003Z" fill="white"/>
<path d="M87.3342 -5.38696H80.2692L37.4897 20.8331V22.3044H43.9178L87.3342 -4.30515V-5.38696Z" fill="#D22F27"/>
<path d="M73.2061 64.7647H87.3342V56.1028L56.2866 37.0732H37.4897V42.8755L73.2061 64.7647Z" fill="white"/>
<path d="M87.3342 64.7647V60.4319L49.2216 37.0732H40.3843L85.5656 64.7647H87.3342Z" fill="#D22F27"/>
<path d="M22.7209 42.8774V37.0732H3.92586L-27.1236 56.1046V64.7647H-12.9936L22.7209 42.8774Z" fill="white"/>
<path d="M-27.1236 64.7647H-20.0586L22.7209 38.5446V37.0732H16.2928L-27.1236 63.6828V64.7647Z" fill="#D22F27"/>
<path d="M-12.9954 -5.38696H-27.1236V3.27491L3.92402 22.3044H22.7209V16.5022L-12.9954 -5.38696Z" fill="white"/>
<path d="M-27.1236 -5.38696V-1.05418L10.9909 22.3044H19.8263L-25.355 -5.38696H-27.1236Z" fill="#D22F27"/>
<path d="M-27.1236 20.4583H87.3342V38.9192H-27.1236V20.4583Z" fill="white"/>
<path d="M20.8748 -5.38696H39.3358V64.7646H20.8748V-5.38696Z" fill="white"/>
<path d="M-27.1236 24.1506H87.3342V35.2272H-27.1236V24.1506Z" fill="#D22F27"/>
<path d="M24.567 -5.38696H35.6436V64.7646H24.567V-5.38696Z" fill="#D22F27"/>
<path d="M-27.1236 -5.38696H87.3342V64.7646H-27.1236V-5.38696Z" stroke="black" stroke-width="2.78323" stroke-linecap="round" stroke-linejoin="round"/>
</g>
</svg>
