<svg width="104" height="101" viewBox="0 0 104 101" fill="none" xmlns="http://www.w3.org/2000/svg">
<path d="M53.0679 86.6156C52.375 86.4574 51.7053 86.2386 51.0309 86.0385C50.8601 85.9873 50.6892 85.9361 50.5229 85.8849C49.8624 85.6801 49.2111 85.466 48.5599 85.2379C48.4721 85.2054 48.3797 85.1728 48.292 85.1402C47.71 84.9308 47.1326 84.7167 46.5599 84.4933C46.3982 84.4281 46.2366 84.3676 46.0749 84.3024C45.4468 84.0511 44.8232 83.7905 44.2043 83.5205C44.0796 83.4647 43.9549 83.4088 43.8302 83.353C43.299 83.111 42.777 82.8643 42.2551 82.6129C42.1027 82.5385 41.9549 82.4687 41.7979 82.3942C41.3868 82.1941 40.9803 81.9753 40.5785 81.7705C40.306 81.6263 40.0334 81.4913 39.7656 81.3423C39.2713 81.0724 38.7864 80.7978 38.3014 80.5139C38.1397 80.4208 37.9734 80.337 37.8072 80.2393C37.1651 79.8623 36.5277 79.4667 35.9042 79.0664C35.7333 78.9547 35.5624 78.8337 35.3915 78.722C34.9342 78.4288 34.4816 78.1263 34.0382 77.8144C33.8904 77.7167 33.7472 77.605 33.604 77.5072C33.1744 77.2001 32.7449 76.8929 32.3246 76.5764C32.1306 76.4321 31.9458 76.2878 31.7565 76.1435C31.3685 75.8457 30.9805 75.5431 30.6017 75.2313C30.4308 75.0917 30.2553 74.952 30.0844 74.8124C29.5994 74.4075 29.1191 74.0072 28.6433 73.5883C28.5925 73.5465 28.5371 73.5046 28.4863 73.458C27.9736 73.0066 27.4702 72.5412 26.9713 72.0711C26.8281 71.9314 26.6849 71.7965 26.5464 71.6615C26.1769 71.3078 25.8166 70.9494 25.461 70.5864C25.3178 70.4421 25.1746 70.3025 25.036 70.1582C24.5834 69.6881 24.14 69.2134 23.7012 68.734C23.6781 68.7107 23.655 68.6874 23.6365 68.6642C23.1746 68.1568 22.7266 67.6356 22.2832 67.1096C22.1631 66.9654 22.0476 66.8304 21.9275 66.6861C21.5996 66.2858 21.2717 65.8809 20.9529 65.4713C20.8329 65.3271 20.7128 65.1735 20.5973 65.0245C20.2139 64.5219 19.8398 64.0239 19.4749 63.5166C9.32728 49.5724 5.683 30.3364 13.7937 14.5399L6.60678 23.7274C-2.60323 37.0665 -1.45775 54.4221 5.57677 68.5943C5.74305 68.9341 5.91857 69.2692 6.09408 69.6043C6.20493 69.8138 6.30655 70.0325 6.42202 70.2419C6.48668 70.3676 6.56059 70.4886 6.62525 70.6096C6.74534 70.8377 6.87005 71.0518 6.99014 71.2705C7.20723 71.6568 7.43355 72.0431 7.65988 72.4295C7.78458 72.6389 7.91391 72.853 8.04324 73.0624C8.29728 73.4767 8.55593 73.8816 8.82383 74.2911C8.93468 74.4634 9.04091 74.6402 9.15638 74.8078C9.52589 75.357 9.90002 75.9062 10.2834 76.4507C10.2926 76.4647 10.3065 76.4786 10.3157 76.4926C10.3758 76.5764 10.445 76.6648 10.5051 76.7532C10.8376 77.2187 11.1841 77.6794 11.5351 78.1309C11.6644 78.2985 11.7938 78.466 11.9231 78.6289C12.2325 79.0245 12.5512 79.4155 12.8746 79.8064C12.9947 79.9507 13.1147 80.0996 13.2395 80.2439C13.6736 80.7559 14.1124 81.2679 14.5651 81.7705C14.5743 81.7798 14.5835 81.7891 14.5928 81.7938C14.6113 81.8171 14.6297 81.831 14.6436 81.8543C15.0824 82.3383 15.535 82.8131 15.9877 83.2832C16.1309 83.4321 16.274 83.5764 16.4172 83.7207C16.7683 84.079 17.1285 84.4328 17.4934 84.7818C17.6412 84.9215 17.7844 85.0657 17.9322 85.2054C18.4172 85.6661 18.9068 86.1176 19.4056 86.5598C19.4149 86.5644 19.4195 86.5737 19.4287 86.5784C19.5119 86.6528 19.6042 86.7273 19.6874 86.7971C20.1262 87.1788 20.5742 87.5604 21.0268 87.9374L21.5811 88.3842C21.9506 88.6821 22.3201 88.9753 22.6943 89.2639C22.8929 89.4175 23.0915 89.5711 23.2901 89.72C23.7012 90.0272 24.1215 90.3297 24.5418 90.6229C24.6942 90.7346 24.842 90.8417 24.9991 90.9487C25.0406 90.9766 25.0822 91.0092 25.1238 91.0371C25.521 91.3164 25.9321 91.577 26.3385 91.847C26.514 91.9633 26.6849 92.0843 26.8651 92.2007C27.4932 92.601 28.126 92.9966 28.7681 93.3782C28.9436 93.4806 29.1191 93.5784 29.2946 93.6761C29.7657 93.9507 30.2415 94.2206 30.7218 94.4859C30.9805 94.6256 31.2484 94.7605 31.5117 94.8955C31.8488 95.0724 32.1906 95.2585 32.5324 95.4308C32.6109 95.4726 32.6941 95.5099 32.768 95.5471C32.9066 95.6123 33.0451 95.6774 33.1883 95.7519C33.7241 96.0079 34.2645 96.2639 34.8095 96.5105C34.925 96.5617 35.0358 96.6129 35.1513 96.6641C35.7749 96.9387 36.403 97.204 37.0404 97.4554C37.1929 97.5205 37.3453 97.5764 37.5023 97.6369C38.0889 97.8649 38.6847 98.093 39.2852 98.3024C39.3591 98.3304 39.433 98.3583 39.5115 98.3816C40.1674 98.6143 40.8325 98.8284 41.4976 99.0378C41.6547 99.0843 41.8163 99.1355 41.978 99.1821C42.657 99.3869 43.3313 99.6335 44.0334 99.7639C88.573 107.951 101.51 72.7925 101.51 72.7925C90.6469 87.0578 71.3585 90.8184 53.0817 86.6342L53.0679 86.6156ZM37.022 50.238C38.0196 51.6808 39.1282 53.3936 40.4491 54.5525C40.9295 55.0831 41.433 55.6043 41.9457 56.1163C42.075 56.2513 42.2089 56.3769 42.3383 56.5073C42.8371 56.9959 43.3405 57.4707 43.8625 57.9361C43.8856 57.9501 43.9041 57.9733 43.9271 57.992C43.9318 57.9966 43.9364 58.0013 43.941 58.0059C44.5184 58.5179 45.1188 59.0112 45.7239 59.4906C45.8578 59.593 45.9918 59.7047 46.1303 59.8118C46.74 60.2819 47.359 60.7426 47.9964 61.1848L48.0518 61.2267C48.3335 61.4221 48.6199 61.6037 48.9017 61.7945C49.0402 61.8829 49.1695 61.9807 49.3081 62.0644C49.7608 62.3576 50.2226 62.6462 50.6892 62.9162C50.7538 62.958 50.8185 62.9906 50.8831 63.0279C51.285 63.2652 51.6961 63.4933 52.1071 63.7167C52.2503 63.8005 52.3981 63.8703 52.5413 63.9448C52.8231 64.0937 53.1094 64.2426 53.3958 64.3916C53.4374 64.4102 53.4836 64.4334 53.5251 64.4474C54.1117 64.7406 54.7029 65.0199 55.308 65.2852C55.4373 65.341 55.5713 65.3922 55.7006 65.4481C56.1856 65.6575 56.6706 65.8576 57.1602 66.0485C57.368 66.1276 57.5805 66.2021 57.7837 66.2812C58.2317 66.4487 58.6752 66.6023 59.1278 66.7513C59.331 66.8164 59.5296 66.8816 59.7329 66.9467C60.3749 67.1469 61.0077 67.4029 61.6728 67.5146C96.0602 73.2533 104 46.5751 104 46.5751C96.8454 56.9634 82.9842 61.9155 68.1946 58.0478C67.5387 57.871 66.8921 57.6848 66.2455 57.48C66.0468 57.4195 65.8575 57.3543 65.6589 57.2892C65.2016 57.1402 64.749 56.982 64.2963 56.8144C64.0885 56.7353 63.8852 56.6608 63.682 56.5817C63.1878 56.3909 62.6982 56.1908 62.2178 55.986C62.0839 55.9255 61.9499 55.8743 61.8206 55.8184C61.2155 55.5531 60.6151 55.2739 60.0239 54.9807C59.719 54.8317 59.4234 54.6735 59.1232 54.5199C58.9523 54.4315 58.7768 54.343 58.6059 54.2499C58.2225 54.0405 57.8438 53.8218 57.4696 53.603C57.3819 53.5518 57.2849 53.5006 57.1971 53.4494C56.7306 53.1748 56.2733 52.8909 55.8161 52.6023C55.6775 52.5139 55.5389 52.4162 55.4004 52.3231C55.1002 52.1276 54.7999 51.9275 54.5089 51.7273C53.8762 51.2852 53.2572 50.8244 52.6522 50.359C52.5136 50.2473 52.3704 50.1402 52.2319 50.0285C45.7608 44.8763 40.6293 37.8391 38.1859 29.857C35.6271 21.5818 36.1813 12.2872 40.6108 4.74734L35.1698 12.4874C28.5094 22.1449 28.8697 35.0744 34.0659 45.2905C34.9388 47.0033 35.918 48.6648 37.0127 50.2473L37.022 50.238ZM73.2708 38.2905C73.5525 38.3976 73.8389 38.4907 74.1252 38.5884C74.2499 38.6256 74.3746 38.6722 74.504 38.7094C74.9104 38.8351 75.3123 38.9887 75.728 39.0631C94.7161 42.7586 99.8661 29.2427 101.238 27.2553C96.7253 33.7992 89.1458 35.3723 79.8434 33.0964C79.109 32.9149 78.3007 32.6496 77.5894 32.3936C76.6795 32.0678 75.788 31.6954 74.9151 31.2766C73.2615 30.476 71.6865 29.5079 70.2269 28.3956C61.9037 22.0332 56.7306 9.89028 62.1624 0L59.2202 4.08178C55.2941 9.90425 54.9108 17.137 57.6313 23.5645C60.5042 30.3923 66.3933 35.7446 73.2615 38.2859L73.2708 38.2905Z" fill="white"/>
</svg>
