<svg width="115" height="113" viewBox="0 0 115 113" fill="none" xmlns="http://www.w3.org/2000/svg">
<path d="M110.4 0H4.6C2.05562 0 0 2.01987 0 4.52V108.48C0 110.98 2.05562 113 4.6 113H110.4C112.944 113 115 110.98 115 108.48V4.52C115 2.01987 112.944 0 110.4 0ZM81.5062 82.716C75.67 87.9987 67.7063 91.1062 58.2044 91.1062C44.4475 91.1062 32.545 83.3516 26.7519 72.0516C24.2835 67.2264 22.9987 61.9005 23 56.5C23 50.9065 24.3656 45.6237 26.7519 40.9484C32.545 29.6342 44.4475 21.8796 58.2044 21.8796C67.6919 21.8796 75.6556 25.312 81.765 30.8914L71.6737 40.8212C68.0225 37.3889 63.3794 35.6515 58.2187 35.6515C49.0475 35.6515 41.285 41.7394 38.5106 49.9177C37.8062 51.9941 37.4038 54.2117 37.4038 56.5C37.4038 58.7882 37.8062 61.0059 38.5106 63.0822C41.285 71.2606 49.0475 77.3485 58.2044 77.3485C62.9481 77.3485 66.9731 76.1196 70.1212 74.0433C73.8587 71.5855 76.3313 67.9271 77.1506 63.5908H58.2044V50.2002H91.3675C91.7844 52.4744 92 54.8332 92 57.2769C92 67.8282 88.1619 76.6846 81.5062 82.716Z" fill="#33956D"/>
</svg>
