<svg width="33" height="33" viewBox="0 0 33 33" fill="none" xmlns="http://www.w3.org/2000/svg">
<path d="M16.4347 0.0478516C20.8945 0.0478516 21.4439 0.0801692 23.1891 0.144805C24.9019 0.20944 26.0976 0.500299 27.1641 0.920428C28.2629 1.34056 29.1678 1.88996 30.0727 2.79485C30.9776 3.69975 31.527 4.60464 31.9471 5.70344C32.3673 6.76992 32.6581 7.96568 32.7228 9.67851C32.7874 11.4237 32.8197 11.9731 32.8197 16.4329C32.8197 20.8927 32.7874 21.4421 32.7228 23.1873C32.6581 24.9001 32.3673 26.0959 31.9471 27.1624C31.527 28.2612 30.9776 29.1661 30.0727 30.0709C29.1678 30.9758 28.2629 31.5252 27.1641 31.9454C26.0976 32.3655 24.9019 32.6564 23.1891 32.721C21.4439 32.7856 20.8945 32.8179 16.4347 32.8179C11.9748 32.8179 11.4254 32.7856 9.68028 32.721C7.96745 32.6564 6.77169 32.3655 5.70521 31.9454C4.60641 31.5252 3.70152 30.9758 2.79662 30.0709C1.89173 29.1661 1.34233 28.2612 0.922198 27.1624C0.502069 26.0959 0.21121 24.9001 0.146575 23.1873C0.0819392 21.4421 0.0496216 20.8927 0.0496216 16.4329C0.0496216 11.9731 0.0819392 11.4237 0.146575 9.67851C0.21121 7.96568 0.502069 6.76992 0.922198 5.70344C1.34233 4.60464 1.89173 3.69975 2.79662 2.79485C3.70152 1.88996 4.60641 1.34056 5.70521 0.920428C6.77169 0.500299 7.96745 0.20944 9.68028 0.144805C11.4254 0.0801692 11.9748 0.0478516 16.4347 0.0478516ZM16.4347 2.18082C11.7809 2.18082 11.2315 2.21313 9.42174 2.27777C7.74122 2.3424 6.80401 2.66558 6.18997 2.8918C4.60641 3.53816 3.53993 4.60464 2.89357 6.1882C2.66735 6.80224 2.34417 7.73945 2.27954 9.41997C2.2149 11.2298 2.18259 11.7792 2.18259 16.4329C2.18259 21.0866 2.2149 21.636 2.27954 23.4458C2.34417 25.1263 2.66735 26.0636 2.89357 26.6776C3.53993 28.2612 4.60641 29.3276 6.18997 29.974C6.80401 30.2002 7.74122 30.5234 9.42174 30.588C11.2315 30.6527 11.7809 30.685 16.4347 30.685C21.0884 30.685 21.6378 30.6527 23.4476 30.588C25.1281 30.5234 26.0653 30.2002 26.6794 29.974C28.2629 29.3276 29.3294 28.2612 29.9758 26.6776C30.202 26.0636 30.5252 25.1263 30.5898 23.4458C30.6544 21.636 30.6868 21.0866 30.6868 16.4329C30.6868 11.7792 30.6544 11.2298 30.5898 9.41997C30.5252 7.73945 30.202 6.80224 29.9758 6.1882C29.3294 4.60464 28.2629 3.53816 26.6794 2.8918C26.0653 2.66558 25.1281 2.3424 23.4476 2.27777C21.6378 2.21313 21.0884 2.18082 16.4347 2.18082ZM16.4347 22.9934C20.0542 22.9934 22.9952 20.0525 22.9952 16.4329C22.9952 12.8133 20.0542 9.87242 16.4347 9.87242C12.8151 9.87242 9.87419 12.8133 9.87419 16.4329C9.87419 20.0525 12.8151 22.9934 16.4347 22.9934ZM16.4347 8.03031C21.0884 8.03031 24.8373 11.7792 24.8373 16.4329C24.8373 21.0866 21.0884 24.8355 16.4347 24.8355C11.7809 24.8355 8.03208 21.0866 8.03208 16.4329C8.03208 11.7792 11.7809 8.03031 16.4347 8.03031ZM27.1641 7.70713C27.1641 8.80593 26.2592 9.64619 25.1604 9.64619C24.0616 9.64619 23.2214 8.80593 23.2214 7.70713C23.2214 6.60833 24.0616 5.70344 25.1604 5.70344C26.2592 5.70344 27.1641 6.60833 27.1641 7.70713Z" fill="white"/>
</svg>
