<svg width="43" height="43" viewBox="0 0 43 43" fill="none" xmlns="http://www.w3.org/2000/svg">
<path d="M21.2032 0C26.9604 0 27.6696 0.0417189 29.9225 0.125157C32.1336 0.208594 33.6772 0.584064 35.0539 1.12641C36.4723 1.66875 37.6405 2.37798 38.8086 3.5461C39.9767 4.71423 40.6859 5.88236 41.2283 7.3008C41.7706 8.67752 42.1461 10.2211 42.2295 12.4322C42.313 14.685 42.3547 15.3943 42.3547 21.1515C42.3547 26.9087 42.313 27.6179 42.2295 29.8707C42.1461 32.0818 41.7706 33.6254 41.2283 35.0021C40.6859 36.4206 39.9767 37.5887 38.8086 38.7568C37.6405 39.925 36.4723 40.6342 35.0539 41.1765C33.6772 41.7189 32.1336 42.0943 29.9225 42.1778C27.6696 42.2612 26.9604 42.3029 21.2032 42.3029C15.446 42.3029 14.7368 42.2612 12.484 42.1778C10.2729 42.0943 8.72928 41.7189 7.35256 41.1765C5.93412 40.6342 4.76599 39.925 3.59786 38.7568C2.42973 37.5887 1.72051 36.4206 1.17817 35.0021C0.635822 33.6254 0.260352 32.0818 0.176914 29.8707C0.0934767 27.6179 0.0517578 26.9087 0.0517578 21.1515C0.0517578 15.3943 0.0934767 14.685 0.176914 12.4322C0.260352 10.2211 0.635822 8.67752 1.17817 7.3008C1.72051 5.88236 2.42973 4.71423 3.59786 3.5461C4.76599 2.37798 5.93412 1.66875 7.35256 1.12641C8.72928 0.584064 10.2729 0.208594 12.484 0.125157C14.7368 0.0417189 15.446 0 21.2032 0ZM21.2032 2.75345C15.1957 2.75345 14.4865 2.79516 12.1502 2.8786C9.98085 2.96204 8.771 3.37923 7.97834 3.67126C5.93412 4.50564 4.5574 5.88236 3.72302 7.92658C3.43099 8.71924 3.0138 9.92909 2.93036 12.0985C2.84692 14.4347 2.8052 15.1439 2.8052 21.1515C2.8052 27.159 2.84692 27.8682 2.93036 30.2045C3.0138 32.3738 3.43099 33.5837 3.72302 34.3763C4.5574 36.4206 5.93412 37.7973 7.97834 38.6317C8.771 38.9237 9.98085 39.3409 12.1502 39.4243C14.4865 39.5078 15.1957 39.5495 21.2032 39.5495C27.2107 39.5495 27.92 39.5078 30.2562 39.4243C32.4256 39.3409 33.6354 38.9237 34.4281 38.6317C36.4723 37.7973 37.8491 36.4206 38.6834 34.3763C38.9755 33.5837 39.3927 32.3738 39.4761 30.2045C39.5595 27.8682 39.6012 27.159 39.6012 21.1515C39.6012 15.1439 39.5595 14.4347 39.4761 12.0985C39.3927 9.92909 38.9755 8.71924 38.6834 7.92658C37.8491 5.88236 36.4723 4.50564 34.4281 3.67126C33.6354 3.37923 32.4256 2.96204 30.2562 2.8786C27.92 2.79516 27.2107 2.75345 21.2032 2.75345ZM21.2032 29.6204C25.8757 29.6204 29.6722 25.824 29.6722 21.1515C29.6722 16.479 25.8757 12.6825 21.2032 12.6825C16.5307 12.6825 12.7343 16.479 12.7343 21.1515C12.7343 25.824 16.5307 29.6204 21.2032 29.6204ZM21.2032 10.3046C27.2107 10.3046 32.0501 15.1439 32.0501 21.1515C32.0501 27.159 27.2107 31.9984 21.2032 31.9984C15.1957 31.9984 10.3563 27.159 10.3563 21.1515C10.3563 15.1439 15.1957 10.3046 21.2032 10.3046ZM35.0539 9.88737C35.0539 11.3058 33.8858 12.3905 32.4673 12.3905C31.0489 12.3905 29.9642 11.3058 29.9642 9.88737C29.9642 8.46893 31.0489 7.3008 32.4673 7.3008C33.8858 7.3008 35.0539 8.46893 35.0539 9.88737Z" fill="#33956D"/>
</svg>
