<svg width="43" height="43" viewBox="0 0 43 43" fill="none" xmlns="http://www.w3.org/2000/svg">
<path d="M39.2741 0H3.22727C1.50343 0 0.104492 1.36603 0.104492 3.04816V39.2507C0.104492 40.9351 1.50343 42.3029 3.22727 42.3029H39.2741C40.9991 42.3029 42.4074 40.9351 42.4074 39.2507V3.04816C42.4074 1.36603 40.9991 0 39.2741 0ZM12.6508 36.048H6.37355V15.8607H12.6508V36.048ZM9.51219 13.1004C7.50104 13.1004 5.87532 11.4706 5.87532 9.46117C5.87532 7.45472 7.50104 5.82488 9.51219 5.82488C11.5186 5.82488 13.1485 7.45472 13.1485 9.46117C13.1485 11.4706 11.5186 13.1004 9.51219 13.1004ZM36.1501 36.048H29.8828V26.2313C29.8828 23.8894 29.837 20.8783 26.6214 20.8783C23.3558 20.8783 22.8582 23.4288 22.8582 26.0615V36.0486H16.5862V15.8607H22.6055V18.6174H22.6913C23.5292 17.031 25.5761 15.3571 28.629 15.3571C34.978 15.3571 36.1507 19.5369 36.1507 24.9746V36.048H36.1501Z" fill="#33956D"/>
</svg>
