<svg width="34" height="33" viewBox="0 0 34 33" fill="none" xmlns="http://www.w3.org/2000/svg">
<path d="M30.9826 0.0478516H3.05884C1.72346 0.0478516 0.639771 1.10605 0.639771 2.40912V30.4535C0.639771 31.7584 1.72346 32.8179 3.05884 32.8179H30.9826C32.3189 32.8179 33.4099 31.7584 33.4099 30.4535V2.40912C33.4099 1.10605 32.3189 0.0478516 30.9826 0.0478516ZM10.3588 27.9725H5.49612V12.3344H10.3588V27.9725ZM7.92748 10.1961C6.36953 10.1961 5.11016 8.93355 5.11016 7.37698C5.11016 5.82267 6.36953 4.56011 7.92748 4.56011C9.48178 4.56011 10.7443 5.82267 10.7443 7.37698C10.7443 8.93355 9.48178 10.1961 7.92748 10.1961ZM28.5626 27.9725H23.7076V20.368C23.7076 18.5539 23.6721 16.2213 21.1812 16.2213C18.6515 16.2213 18.266 18.197 18.266 20.2365V27.973H13.4074V12.3344H18.0703V14.4699H18.1367C18.7858 13.241 20.3715 11.9443 22.7364 11.9443C27.6546 11.9443 28.5631 15.1822 28.5631 19.3945V27.9725H28.5626Z" fill="white"/>
</svg>
