<svg width="67" height="65" viewBox="0 0 67 65" fill="none" xmlns="http://www.w3.org/2000/svg">
<path d="M34.2837 55.8304C33.8387 55.7296 33.4085 55.5901 32.9753 55.4625C32.8655 55.4299 32.7558 55.3973 32.6489 55.3646C32.2247 55.2341 31.8063 55.0976 31.388 54.9522C31.3316 54.9315 31.2723 54.9107 31.2159 54.8899C30.8421 54.7564 30.4712 54.6199 30.1033 54.4775C29.9995 54.436 29.8956 54.3974 29.7918 54.3559C29.3883 54.1957 28.9878 54.0295 28.5902 53.8574C28.5101 53.8218 28.43 53.7862 28.3499 53.7506C28.0087 53.5963 27.6734 53.4391 27.3381 53.2789C27.2402 53.2314 27.1453 53.1869 27.0444 53.1394C26.7804 53.0119 26.5193 52.8724 26.2612 52.7419C26.0861 52.6499 25.9111 52.5639 25.739 52.4689C25.4215 52.2968 25.11 52.1218 24.7985 51.9408C24.6946 51.8815 24.5878 51.8281 24.481 51.7658C24.0686 51.5254 23.6592 51.2732 23.2586 51.0181C23.1488 50.9469 23.0391 50.8697 22.9293 50.7985C22.6356 50.6116 22.3448 50.4188 22.06 50.22C21.965 50.1577 21.8731 50.0865 21.7811 50.0242C21.5052 49.8283 21.2293 49.6325 20.9593 49.4308C20.8346 49.3388 20.716 49.2468 20.5943 49.1549C20.3451 48.965 20.0959 48.7721 19.8526 48.5733C19.7428 48.4843 19.6301 48.3953 19.5203 48.3063C19.2088 48.0482 18.9002 47.793 18.5946 47.526C18.562 47.4993 18.5264 47.4726 18.4937 47.4429C18.1644 47.1551 17.841 46.8585 17.5206 46.5588C17.4286 46.4698 17.3366 46.3837 17.2476 46.2977C17.0103 46.0722 16.7789 45.8438 16.5504 45.6124C16.4584 45.5204 16.3665 45.4314 16.2775 45.3394C15.9867 45.0397 15.7019 44.7371 15.42 44.4315C15.4052 44.4167 15.3903 44.4018 15.3785 44.387C15.0818 44.0636 14.794 43.7313 14.5092 43.3961C14.432 43.3041 14.3579 43.218 14.2807 43.1261C14.0701 42.8709 13.8594 42.6128 13.6547 42.3517C13.5776 42.2597 13.5004 42.1618 13.4262 42.0669C13.18 41.7464 12.9397 41.429 12.7053 41.1056C6.18694 32.2167 3.84604 19.9544 9.05596 9.88464L4.43942 15.7414C-1.47663 24.2446 -0.74083 35.3082 3.7778 44.3425C3.88461 44.5591 3.99735 44.7727 4.11009 44.9863C4.1813 45.1198 4.24657 45.2593 4.32074 45.3928C4.36228 45.4729 4.40975 45.55 4.45129 45.6272C4.52843 45.7726 4.60854 45.909 4.68568 46.0485C4.82512 46.2947 4.9705 46.541 5.11588 46.7873C5.19599 46.9208 5.27906 47.0572 5.36214 47.1908C5.52532 47.4548 5.69146 47.7129 5.86355 47.974C5.93475 48.0838 6.00299 48.1965 6.07716 48.3034C6.31452 48.6534 6.55484 49.0035 6.80109 49.3507C6.80703 49.3596 6.81593 49.3685 6.82186 49.3774C6.86043 49.4308 6.90494 49.4872 6.94351 49.5435C7.15713 49.8402 7.37964 50.1339 7.60513 50.4217C7.6882 50.5285 7.77128 50.6354 7.85435 50.7392C8.05314 50.9914 8.25785 51.2406 8.46554 51.4898C8.54268 51.5818 8.61982 51.6767 8.69993 51.7687C8.97882 52.0951 9.26067 52.4214 9.55143 52.7419C9.55737 52.7478 9.5633 52.7537 9.56923 52.7567C9.5811 52.7715 9.59297 52.7804 9.60187 52.7953C9.88373 53.1038 10.1745 53.4065 10.4652 53.7061C10.5572 53.8011 10.6492 53.893 10.7412 53.985C10.9667 54.2135 11.1981 54.439 11.4325 54.6615C11.5274 54.7505 11.6194 54.8425 11.7143 54.9315C12.0258 55.2252 12.3403 55.513 12.6608 55.7948C12.6667 55.7978 12.6697 55.8037 12.6756 55.8067C12.729 55.8542 12.7883 55.9016 12.8418 55.9461C13.1236 56.1894 13.4114 56.4327 13.7022 56.673L14.0582 56.9579C14.2955 57.1478 14.5329 57.3347 14.7732 57.5186C14.9008 57.6165 15.0284 57.7144 15.156 57.8094C15.42 58.0052 15.69 58.198 15.96 58.385C16.0579 58.4562 16.1528 58.5244 16.2537 58.5926C16.2804 58.6104 16.3071 58.6312 16.3338 58.649C16.589 58.827 16.853 58.9932 17.1141 59.1653C17.2269 59.2394 17.3366 59.3166 17.4524 59.3907C17.8559 59.6459 18.2623 59.8981 18.6747 60.1414C18.7875 60.2067 18.9002 60.269 19.013 60.3313C19.3156 60.5063 19.6212 60.6784 19.9297 60.8475C20.0959 60.9365 20.268 61.0226 20.4371 61.1086C20.6537 61.2213 20.8732 61.34 21.0928 61.4498C21.1432 61.4765 21.1966 61.5002 21.2441 61.524C21.3331 61.5655 21.4221 61.607 21.5141 61.6545C21.8582 61.8177 22.2054 61.9809 22.5555 62.1381C22.6296 62.1708 22.7008 62.2034 22.775 62.236C23.1756 62.4111 23.5791 62.5802 23.9885 62.7404C24.0864 62.7819 24.1843 62.8175 24.2852 62.8561C24.662 63.0015 25.0447 63.1469 25.4304 63.2804C25.4779 63.2982 25.5254 63.316 25.5758 63.3308C25.9971 63.4792 26.4243 63.6156 26.8516 63.7492C26.9524 63.7788 27.0563 63.8115 27.1601 63.8411C27.5963 63.9717 28.0294 64.1289 28.4804 64.212C57.0905 69.4308 65.4008 47.0187 65.4008 47.0187C58.4226 56.1123 46.0327 58.5096 34.2926 55.8423L34.2837 55.8304ZM23.9766 32.641C24.6175 33.5607 25.3295 34.6525 26.1781 35.3913C26.4866 35.7295 26.81 36.0618 27.1394 36.3882C27.2224 36.4742 27.3085 36.5543 27.3916 36.6374C27.712 36.9489 28.0354 37.2516 28.3706 37.5482C28.3855 37.5571 28.3973 37.572 28.4122 37.5838C28.4151 37.5868 28.4181 37.5898 28.4211 37.5927C28.7919 37.9191 29.1776 38.2336 29.5663 38.5392C29.6524 38.6045 29.7384 38.6757 29.8274 38.7439C30.219 39.0436 30.6166 39.3373 31.026 39.6192L31.0616 39.6459C31.2426 39.7705 31.4266 39.8862 31.6076 40.0078C31.6966 40.0642 31.7796 40.1265 31.8686 40.1799C32.1594 40.3668 32.4561 40.5508 32.7558 40.7229C32.7973 40.7496 32.8388 40.7703 32.8804 40.7941C33.1385 40.9454 33.4025 41.0908 33.6666 41.2332C33.7586 41.2866 33.8535 41.3311 33.9455 41.3785C34.1265 41.4735 34.3104 41.5684 34.4944 41.6634C34.5211 41.6752 34.5507 41.6901 34.5774 41.699C34.9542 41.8859 35.334 42.0639 35.7227 42.233C35.8057 42.2686 35.8918 42.3013 35.9749 42.3369C36.2864 42.4704 36.5979 42.598 36.9124 42.7196C37.0459 42.77 37.1824 42.8175 37.313 42.8679C37.6007 42.9748 37.8856 43.0727 38.1763 43.1676C38.3069 43.2091 38.4344 43.2507 38.565 43.2922C38.9774 43.4198 39.3839 43.583 39.8111 43.6542C61.8999 47.3124 67 30.306 67 30.306C62.4042 36.9282 53.5005 40.085 44.0004 37.6195C43.5791 37.5067 43.1637 37.388 42.7484 37.2575C42.6208 37.2189 42.4991 37.1774 42.3716 37.1358C42.0778 37.0409 41.7871 36.94 41.4963 36.8332C41.3628 36.7828 41.2323 36.7353 41.1017 36.6849C40.7843 36.5632 40.4698 36.4356 40.1612 36.3051C40.0752 36.2665 39.9891 36.2339 39.906 36.1983C39.5174 36.0292 39.1317 35.8512 38.7519 35.6642C38.5561 35.5693 38.3662 35.4684 38.1734 35.3705C38.0636 35.3141 37.9508 35.2578 37.8411 35.1984C37.5948 35.0649 37.3515 34.9255 37.1112 34.786C37.0548 34.7534 36.9925 34.7208 36.9361 34.6881C36.6365 34.5131 36.3428 34.3321 36.049 34.1482C35.96 34.0918 35.871 34.0295 35.782 33.9701C35.5892 33.8455 35.3963 33.7179 35.2094 33.5904C34.8029 33.3085 34.4054 33.0148 34.0167 32.7181C33.9277 32.6469 33.8357 32.5787 33.7467 32.5074C29.59 29.2231 26.2938 24.7371 24.7243 19.6488C23.0806 14.3736 23.4366 8.44865 26.2819 3.64223L22.7869 8.57623C18.5086 14.7326 18.74 22.9747 22.0778 29.4871C22.6385 30.5789 23.2675 31.6381 23.9707 32.6469L23.9766 32.641ZM47.2611 25.0249C47.442 25.0931 47.626 25.1524 47.8099 25.2147C47.89 25.2385 47.9701 25.2681 48.0532 25.2919C48.3143 25.372 48.5724 25.4699 48.8395 25.5174C61.0365 27.8731 64.3446 19.2572 65.2258 17.9903C62.3271 22.1618 57.4584 23.1646 51.483 21.7138C51.0112 21.5981 50.492 21.4289 50.0351 21.2658C49.4506 21.0581 48.878 20.8207 48.3173 20.5537C47.2551 20.0434 46.2434 19.4263 45.3058 18.7172C39.9594 14.6614 36.6365 6.92068 40.1256 0.615967L38.2357 3.21796C35.7138 6.92958 35.4675 11.5402 37.215 15.6375C39.0605 19.99 42.8433 23.4019 47.2551 25.0219L47.2611 25.0249Z" fill="#F07167"/>
</svg>
