<svg width="167" height="134" viewBox="0 0 167 134" fill="none" xmlns="http://www.w3.org/2000/svg">
<path d="M150.192 0H16.688C7.48457 0 0 7.48457 0 16.688V116.816C0 126.019 7.48457 133.504 16.688 133.504H150.192C159.395 133.504 166.88 126.019 166.88 116.816V16.688C166.88 7.48457 159.395 0 150.192 0ZM37.548 25.032C44.4652 25.032 50.064 30.6392 50.064 37.548C50.064 44.4568 44.4652 50.064 37.548 50.064C30.6308 50.064 25.032 44.4568 25.032 37.548C25.032 30.6392 30.6308 25.032 37.548 25.032ZM83.44 108.472H58.408H25.032L58.408 66.752L70.924 83.44L95.956 50.064L141.848 108.472H83.44Z" fill="#33956D"/>
</svg>
