<svg width="270" height="270" viewBox="0 0 270 270" fill="none" xmlns="http://www.w3.org/2000/svg">
<circle cx="135" cy="135" r="135" fill="#D8D8D8"/>
<path d="M134.777 46.4998C131.784 46.4998 128.827 46.9456 125.997 47.6545C124.342 48.0741 122.745 48.6252 121.149 49.2711C120.536 49.5225 119.908 49.6801 119.303 49.964C119.052 50.081 118.859 50.3035 118.61 50.4259C117.109 51.1692 115.639 52.0299 114.223 52.9663C114.023 53.0949 113.727 53.0653 113.529 53.1973C113.113 53.4828 112.783 53.8194 112.375 54.1207C111.216 54.9528 109.998 55.717 108.911 56.6615C107.919 57.5535 107.067 58.6746 106.139 59.6634C102.998 62.8849 100.274 66.2933 98.0556 70.2878C94.2466 76.9642 91.4028 84.4809 90.2041 92.2275C89.6254 92.1056 89.0948 92.062 88.5871 92.2275C84.7064 93.4912 83.7501 100.863 86.2776 108.624C87.7608 113.179 90.2285 116.765 92.7441 118.786C96.1237 131.925 103.281 142.877 112.606 149.735V157.355L105.215 164.745L90.4347 172.136C78.4823 178.055 66.5757 183.997 54.6373 189.917C48.022 193.908 45.4622 201.741 46.0926 209.087C46.4005 213.714 44.7292 219.633 49.3259 222.715C53.6928 224.962 58.903 223.498 63.6447 223.868C77.5134 223.861 91.3466 223.868 105.215 223.868C124.94 223.875 144.613 223.868 164.338 223.868C181.831 223.868 199.272 223.898 216.765 223.868C222.441 223.469 224.015 217.475 223.461 212.782C223.564 205.895 223.971 198.179 218.613 192.917C214.238 188.468 208.015 186.709 202.679 183.679C194.838 179.799 186.953 176.016 179.119 172.136L164.338 164.745L156.948 157.355V149.735C166.274 142.877 173.428 131.925 176.813 118.786C179.326 116.764 181.794 113.178 183.272 108.624C185.8 100.863 184.846 93.4912 180.966 92.2275C180.456 92.062 179.932 92.1056 179.348 92.2275C178.151 84.4809 175.305 76.9642 171.499 70.2878C169.282 66.2933 166.555 62.8849 163.414 59.6634C162.483 58.6746 161.633 57.5535 160.643 56.6615C160.599 56.6208 160.458 56.7021 160.414 56.6615C157.517 54.0756 154.302 52.0873 150.947 50.4259C150.097 50.0104 149.269 49.6237 148.405 49.2711C147.784 49.0198 147.185 48.7962 146.557 48.5783C144.672 47.9244 142.744 47.2956 140.778 46.9617C140.63 46.9365 140.467 46.9849 140.319 46.9617C138.479 46.6724 136.661 46.4794 134.777 46.4998Z" fill="#3C4347"/>
<path d="M46.0926 216.476C46.2878 218.693 47.0275 220.91 49.3259 222.388C53.6928 224.605 58.903 223.128 63.6446 223.867H105.215H164.338H216.765C221.022 223.128 222.988 220.171 223.461 216.476H46.0926Z" fill="#3C4347"/>
</svg>
