<svg xmlns:dc="http://purl.org/dc/elements/1.1/" xmlns:cc="http://creativecommons.org/ns#" xmlns:rdf="http://www.w3.org/1999/02/22-rdf-syntax-ns#" xmlns:svg="http://www.w3.org/2000/svg" xmlns="http://www.w3.org/2000/svg" xmlns:xlink="http://www.w3.org/1999/xlink" id="svg653849" viewBox="0 0 1024 768" height="768px" width="1024px" version="1.1">
  <metadata id="metadata653855">
    <rdf:rdf>
      <cc:work rdf:about="">
        <dc:format>image/svg+xml</dc:format>
        <dc:type rdf:resource="http://purl.org/dc/dcmitype/StillImage"></dc:type>
      </cc:work>
    </rdf:rdf>
  </metadata>
  <defs id="defs653853"></defs>
  <linearGradient spreadMethod="pad" y2="30%" x2="-10%" y1="120%" x1="30%" id="3d_gradient2-logo-78f9ed72-6e36-4074-95c3-eb9f9fd1ff28">
    <stop id="stop653830" stop-opacity="1" stop-color="#ffffff" offset="0%"></stop>
    <stop id="stop653832" stop-opacity="1" stop-color="#000000" offset="100%"></stop>
  </linearGradient>
  <linearGradient gradientTransform="rotate(-30)" spreadMethod="pad" y2="30%" x2="-10%" y1="120%" x1="30%" id="3d_gradient3-logo-78f9ed72-6e36-4074-95c3-eb9f9fd1ff28">
    <stop id="stop653835" stop-opacity="1" stop-color="#ffffff" offset="0%"></stop>
    <stop id="stop653837" stop-opacity="1" stop-color="#cccccc" offset="50%"></stop>
    <stop id="stop653839" stop-opacity="1" stop-color="#000000" offset="100%"></stop>
  </linearGradient>
  <g id="logo-group">
    <image xlink:href="" id="container" style="display: none;" x="272" y="144" width="480" height="480" transform="translate(0 0)"></image>
    <g id="logo-center" transform="translate(-34.10044080000034 0)">
      <image xlink:href="" id="icon_container" style="display: none;" x="0" y="0"></image>
      <g id="slogan" style="font-style:normal;font-weight:400;font-size:32px;line-height:1;font-family:Montserrat;font-variant-ligatures:none;text-align:center;text-anchor:middle" transform="translate(0 0)"></g>
      <g id="title" style="font-style:normal;font-weight:800;font-size:72px;line-height:1;font-family:'Montserrat ExtraBold Alt1';font-variant-ligatures:none;text-align:center;text-anchor:middle" transform="translate(0 0)">
        <path id="path653858" style="font-style:normal;font-weight:800;font-size:72px;line-height:1;font-family:'Montserrat ExtraBold Alt1';font-variant-ligatures:none;text-align:center;text-anchor:middle" d="m 236.5595,-0.504 c 3.816,1.008 7.776,1.512 11.88,1.512 4.752,0 8.856,-0.72 12.24,-2.16 3.312,-1.44 5.832,-3.456 7.56,-5.904 1.656,-2.448 2.52,-5.184 2.52,-8.208 0,-3.456 -0.936,-6.264 -2.808,-8.28 -1.872,-2.016 -4.032,-3.528 -6.552,-4.464 -2.52,-0.936 -5.688,-1.8 -9.504,-2.664 -3.456,-0.72 -5.904,-1.368 -7.416,-2.088 -1.584,-0.648 -2.304,-1.656 -2.304,-3.024 0,-1.296 0.648,-2.376 1.944,-3.24 1.296,-0.864 3.312,-1.296 6.192,-1.296 4.464,0 9.144,1.296 13.968,3.888 l 4.392,-10.584 c -2.448,-1.44 -5.328,-2.52 -8.496,-3.24 -3.24,-0.72 -6.48,-1.152 -9.792,-1.152 -4.896,0 -9,0.72 -12.312,2.16 -3.312,1.44 -5.832,3.456 -7.488,5.904 -1.728,2.448 -2.52,5.256 -2.52,8.28 0,3.528 0.864,6.336 2.736,8.352 1.8,2.088 3.96,3.6 6.552,4.536 2.52,0.936 5.688,1.8 9.504,2.592 3.456,0.792 5.904,1.512 7.488,2.232 1.584,0.72 2.376,1.728 2.376,3.168 0,2.736 -2.736,4.104 -8.208,4.104 -2.88,0 -5.832,-0.432 -8.784,-1.368 -3.024,-0.864 -5.616,-2.088 -7.848,-3.6 l -4.68,10.512 c 2.376,1.728 5.472,3.024 9.36,4.032 z" stroke-width="0" stroke-linejoin="miter" stroke-miterlimit="2" fill="#000000" stroke="#000000" transform="translate(0 272.431612) translate(50 -21.49744000000002) scale(2.43) translate(-227.1995 51.408)"></path>
        <path id="path653860" style="font-style:normal;font-weight:800;font-size:72px;line-height:1;font-family:'Montserrat ExtraBold Alt1';font-variant-ligatures:none;text-align:center;text-anchor:middle" d="m 313.70637,-35.352 c -2.952,-2.88 -6.84,-4.32 -11.664,-4.32 -2.30399,0 -4.464,0.36 -6.48,1.08 -2.016,0.72 -3.816,1.8 -5.256,3.168 v -18 h -13.68 V 0 h 13.68 v -18.864 c 0,-3.024 0.64801,-5.328 2.08801,-6.912 1.44,-1.512 3.31199,-2.304 5.688,-2.304 4.24799,0 6.40799,2.664 6.40799,7.992 V 0 h 13.68 v -22.32 c 0,-5.76 -1.512,-10.152 -4.464,-13.032 z" stroke-width="0" stroke-linejoin="miter" stroke-miterlimit="2" fill="#000000" stroke="#000000" transform="translate(0 272.431612) translate(170.10729410000002 -26.39632000000001) scale(2.43) translate(-276.62637 53.424)"></path>
        <path id="path653862" style="font-style:normal;font-weight:800;font-size:72px;line-height:1;font-family:'Montserrat ExtraBold Alt1';font-variant-ligatures:none;text-align:center;text-anchor:middle" d="m 366.92338,-16.056 c 0.14399,-2.16 0.21599,-3.24 0.21599,-3.384 0,-4.176 -0.936,-7.776 -2.808,-10.8 -1.87199,-3.024 -4.32,-5.4 -7.488,-6.984 -3.168,-1.584 -6.696,-2.448 -10.584,-2.448 -4.104,0 -7.77599,0.864 -11.01599,2.592 -3.31201,1.728 -5.832,4.176 -7.70401,7.2 -1.872,3.024 -2.73599,6.48 -2.73599,10.296 0,3.888 0.93599,7.416 2.80799,10.44 1.87201,3.096 4.60801,5.472 8.064,7.2 3.456,1.728 7.41601,2.592 12.02401,2.592 7.272,0 12.81599,-2.088 16.63199,-6.336 l -7.2,-7.488 c -1.44,1.224 -2.808,2.088 -4.176,2.592 -1.368,0.576 -2.952,0.792 -4.824,0.792 -2.52,0 -4.608,-0.504 -6.264,-1.584 -1.656,-1.08 -2.736,-2.664 -3.31199,-4.68 z m -25.92001,-12.096 c 1.44,-1.152 3.168,-1.8 5.328,-1.8 2.088,0 3.816,0.648 5.256,1.8 1.44,1.224 2.304,2.88 2.736,4.896 h -15.98399 c 0.35999,-2.016 1.22399,-3.672 2.66399,-4.896 z" stroke-width="0" stroke-linejoin="miter" stroke-miterlimit="2" fill="#000000" stroke="#000000" transform="translate(0 272.431612) translate(287.17742840000005 7.021040000000006) scale(2.43) translate(-324.80338 39.672)"></path>
        <path id="path653864" style="font-style:normal;font-weight:800;font-size:72px;line-height:1;font-family:'Montserrat ExtraBold Alt1';font-variant-ligatures:none;text-align:center;text-anchor:middle" d="m 407.717,-37.152 c -2.88,-1.656 -6.12,-2.52 -9.648,-2.52 -5.184,0 -9,1.512 -11.52,4.536 v -3.888 h -13.032 v 52.992 h 13.68 V -3.456 c 2.664,2.736 6.264,4.104 10.872,4.104 3.528,0 6.768,-0.792 9.648,-2.448 2.88,-1.656 5.184,-4.032 6.912,-7.056 1.728,-3.024 2.592,-6.624 2.592,-10.656 0,-4.032 -0.864,-7.56 -2.592,-10.584 -1.728,-3.024 -4.032,-5.4 -6.912,-7.056 z m -6.624,24.48 c -1.584,1.656 -3.528,2.448 -5.904,2.448 -2.448,0 -4.392,-0.792 -5.904,-2.448 -1.584,-1.656 -2.304,-3.96 -2.304,-6.84 0,-2.88 0.72,-5.112 2.304,-6.768 1.512,-1.656 3.456,-2.52 5.904,-2.52 2.376,0 4.32,0.864 5.904,2.52 1.512,1.656 2.304,3.888 2.304,6.768 0,2.88 -0.792,5.184 -2.304,6.84 z" stroke-width="0" stroke-linejoin="miter" stroke-miterlimit="2" fill="#000000" stroke="#000000" transform="translate(0 272.431612) translate(405.5515250000001 7.021040000000006) scale(2.43) translate(-373.517 39.672)"></path>
        <path id="path653866" style="font-style:normal;font-weight:800;font-size:72px;line-height:1;font-family:'Montserrat ExtraBold Alt1';font-variant-ligatures:none;text-align:center;text-anchor:middle" d="m 460.6595,-35.352 c -2.952,-2.88 -6.84,-4.32 -11.664,-4.32 -2.304,0 -4.464,0.36 -6.48,1.08 -2.016,0.72 -3.816,1.8 -5.256,3.168 v -18 h -13.68 V 0 h 13.68 v -18.864 c 0,-3.024 0.648,-5.328 2.088,-6.912 1.44,-1.512 3.312,-2.304 5.688,-2.304 4.248,0 6.408,2.664 6.408,7.992 V 0 h 13.68 v -22.32 c 0,-5.76 -1.512,-10.152 -4.464,-13.032 z" stroke-width="0" stroke-linejoin="miter" stroke-miterlimit="2" fill="#000000" stroke="#000000" transform="translate(0 272.431612) translate(527.2034000000001 -26.39632000000001) scale(2.43) translate(-423.5795 53.424)"></path>
        <path id="path653868" style="font-style:normal;font-weight:800;font-size:72px;line-height:1;font-family:'Montserrat ExtraBold Alt1';font-variant-ligatures:none;text-align:center;text-anchor:middle" d="m 513.8765,-16.056 c 0.144,-2.16 0.216,-3.24 0.216,-3.384 0,-4.176 -0.936,-7.776 -2.808,-10.8 -1.872,-3.024 -4.32,-5.4 -7.488,-6.984 -3.168,-1.584 -6.696,-2.448 -10.584,-2.448 -4.104,0 -7.776,0.864 -11.016,2.592 -3.312,1.728 -5.832,4.176 -7.704,7.2 -1.872,3.024 -2.736,6.48 -2.736,10.296 0,3.888 0.936,7.416 2.808,10.44 1.872,3.096 4.608,5.472 8.064,7.2 3.456,1.728 7.416,2.592 12.024,2.592 7.272,0 12.816,-2.088 16.632,-6.336 l -7.2,-7.488 c -1.44,1.224 -2.808,2.088 -4.176,2.592 -1.368,0.576 -2.952,0.792 -4.824,0.792 -2.52,0 -4.608,-0.504 -6.264,-1.584 -1.656,-1.08 -2.736,-2.664 -3.312,-4.68 z m -25.92,-12.096 c 1.44,-1.152 3.168,-1.8 5.328,-1.8 2.088,0 3.816,0.648 5.256,1.8 1.44,1.224 2.304,2.88 2.736,4.896 h -15.984 c 0.36,-2.016 1.224,-3.672 2.664,-4.896 z" stroke-width="0" stroke-linejoin="miter" stroke-miterlimit="2" fill="#000000" stroke="#000000" transform="translate(0 272.431612) translate(644.2735100000002 7.021040000000006) scale(2.43) translate(-471.7565 39.672)"></path>
        <path id="path653870" style="font-style:normal;font-weight:800;font-size:72px;line-height:1;font-family:'Montserrat ExtraBold Alt1';font-variant-ligatures:none;text-align:center;text-anchor:middle" d="m 538.90212,-38.304 c -2.232,0.864 -4.03199,2.232 -5.4,3.96 v -4.68 H 520.47013 V 0 h 13.67999 v -17.928 c 0,-3.24 0.79201,-5.688 2.448,-7.272 1.65601,-1.584 3.96001,-2.376 6.91201,-2.376 0.792,0 1.79999,0.072 3.096,0.216 v -12.312 c -2.88,0 -5.472,0.504 -7.70401,1.368 z" stroke-width="0" stroke-linejoin="miter" stroke-miterlimit="2" fill="#000000" stroke="#000000" transform="translate(0 272.431612) translate(762.6476309000004 7.021040000000006) scale(2.43) translate(-520.47013 39.672)"></path>
        <path id="path653872" style="font-style:normal;font-weight:800;font-size:72px;line-height:1;font-family:'Montserrat ExtraBold Alt1';font-variant-ligatures:none;text-align:center;text-anchor:middle" d="m 593.3015,-53.424 h -13.68 v 17.784 c -2.592,-2.664 -6.192,-4.032 -10.8,-4.032 -3.6,0 -6.84,0.864 -9.72,2.448 -2.952,1.656 -5.256,4.032 -6.984,7.056 -1.728,3.024 -2.52,6.552 -2.52,10.584 0,4.032 0.792,7.632 2.52,10.656 1.728,3.096 4.032,5.472 6.984,7.128 2.88,1.656 6.12,2.448 9.72,2.448 5.04,0 8.856,-1.512 11.448,-4.536 V 0 h 13.032 z m -15.768,40.752 c -1.584,1.656 -3.528,2.448 -5.832,2.448 -2.448,0 -4.392,-0.792 -5.904,-2.448 -1.584,-1.656 -2.304,-3.96 -2.304,-6.912 0,-2.88 0.72,-5.112 2.304,-6.768 1.512,-1.584 3.456,-2.448 5.904,-2.448 2.376,0 4.32,0.864 5.832,2.448 1.512,1.656 2.304,3.888 2.304,6.768 0,2.952 -0.792,5.256 -2.304,6.912 z" stroke-width="0" stroke-linejoin="miter" stroke-miterlimit="2" fill="#000000" stroke="#000000" transform="translate(0 272.431612) translate(833.4271400000003 -26.39632000000001) scale(2.43) translate(-549.5975 53.424)"></path>
        <path id="path653874" style="font-style:normal;font-weight:800;font-size:72px;line-height:1;font-family:'Montserrat ExtraBold Alt1';font-variant-ligatures:none;text-align:center;text-anchor:middle" d="m 606.56862,-0.432 c 3.168,0.72 6.336,1.08 9.64801,1.08 4.03199,0 7.55999,-0.504 10.43999,-1.656 2.88,-1.08 5.11201,-2.592 6.624,-4.536 1.44001,-1.944 2.232,-4.176 2.232,-6.624 0,-2.952 -0.79199,-5.256 -2.376,-6.912 -1.58399,-1.656 -3.384,-2.808 -5.472,-3.456 -2.15999,-0.576 -4.82399,-1.152 -7.99199,-1.656 -2.592,-0.36 -4.39201,-0.72 -5.47201,-1.08 -1.15199,-0.36 -1.656,-1.008 -1.656,-1.944 0,-0.792 0.50401,-1.44 1.51201,-1.944 1.00799,-0.504 2.592,-0.792 4.75199,-0.792 4.03201,0 7.776,1.008 11.232,2.88 l 4.10401,-9.288 c -1.87201,-1.008 -4.24801,-1.872 -6.98401,-2.448 -2.808,-0.576 -5.616,-0.864 -8.424,-0.864 -4.032,0 -7.416,0.576 -10.296,1.728 -2.88,1.152 -5.04,2.664 -6.47999,4.608 -1.51201,1.944 -2.23201,4.176 -2.23201,6.624 0,3.024 0.792,5.4 2.37601,7.056 1.58399,1.728 3.45599,2.88 5.616,3.456 2.15999,0.648 4.82399,1.152 7.99199,1.512 2.448,0.36 4.17601,0.72 5.328,1.08 1.15201,0.36 1.72801,0.936 1.72801,1.8 0,0.864 -0.504,1.584 -1.44001,2.016 -0.936,0.432 -2.52,0.648 -4.67999,0.648 -2.44801,0 -4.82401,-0.288 -7.27201,-0.936 -2.448,-0.648 -4.60799,-1.512 -6.336,-2.664 l -4.10399,9.36 c 1.87199,1.224 4.46399,2.232 7.63199,2.952 z" stroke-width="0" stroke-linejoin="miter" stroke-miterlimit="2" fill="#000000" stroke="#000000" transform="translate(0 272.431612) translate(953.3212259000006 7.021040000000006) scale(2.43) translate(-598.93663 39.672)"></path>
        <path id="path653876" style="font-style:normal;font-weight:800;font-size:72px;line-height:1;font-family:'Montserrat ExtraBold Alt1';font-variant-ligatures:none;text-align:center;text-anchor:middle" d="M 663.00875,-50.4 V 0 h 14.256 v -50.4 z" stroke-width="0" stroke-linejoin="miter" stroke-miterlimit="2" fill="#000000" stroke="#000000" transform="translate(0 272.431612) translate(50 125.48645600000003) scale(2.43) translate(-663.00875 50.4)"></path>
        <path id="path653878" style="font-style:normal;font-weight:800;font-size:72px;line-height:1;font-family:'Montserrat ExtraBold Alt1';font-variant-ligatures:none;text-align:center;text-anchor:middle" d="m 723.9095,-35.352 c -2.952,-2.88 -6.84,-4.32 -11.664,-4.32 -2.52,0 -4.824,0.432 -6.912,1.296 -2.16,0.864 -3.96,2.016 -5.472,3.6 v -4.248 h -13.032 V 0 h 13.68 v -18.864 c 0,-3.024 0.648,-5.328 2.088,-6.912 1.44,-1.512 3.312,-2.304 5.688,-2.304 4.248,0 6.408,2.664 6.408,7.992 V 0 h 13.68 v -22.32 c 0,-5.76 -1.512,-10.152 -4.464,-13.032 z" stroke-width="0" stroke-linejoin="miter" stroke-miterlimit="2" fill="#000000" stroke="#000000" transform="translate(0 272.431612) translate(107.88442250000028 151.55549600000003) scale(2.43) translate(-686.8295 39.672)"></path>
        <path id="path653880" style="font-style:normal;font-weight:800;font-size:72px;line-height:1;font-family:'Montserrat ExtraBold Alt1';font-variant-ligatures:none;text-align:center;text-anchor:middle" d="m 745.8065,-1.944 c 3.384,1.728 7.272,2.592 11.592,2.592 4.392,0 8.208,-0.936 11.448,-2.808 3.168,-1.872 5.472,-4.536 6.84,-7.92 l -10.584,-5.4 c -1.8,3.528 -4.392,5.256 -7.776,5.256 -2.448,0 -4.536,-0.792 -6.12,-2.448 -1.584,-1.656 -2.376,-3.96 -2.376,-6.912 0,-2.88 0.792,-5.112 2.376,-6.768 1.584,-1.584 3.672,-2.448 6.12,-2.448 3.384,0 5.976,1.8 7.776,5.256 l 10.584,-5.4 c -1.368,-3.312 -3.672,-5.976 -6.84,-7.848 -3.24,-1.872 -7.056,-2.88 -11.448,-2.88 -4.32,0 -8.208,0.864 -11.592,2.592 -3.456,1.728 -6.12,4.104 -7.992,7.128 -1.872,3.024 -2.808,6.48 -2.808,10.368 0,3.888 0.936,7.416 2.808,10.44 1.872,3.096 4.536,5.472 7.992,7.2 z" stroke-width="0" stroke-linejoin="miter" stroke-miterlimit="2" fill="#000000" stroke="#000000" transform="translate(0 272.431612) translate(224.9545325000001 151.55549600000003) scale(2.43) translate(-735.0065 39.672)"></path>
        <path id="path653882" style="font-style:normal;font-weight:800;font-size:72px;line-height:1;font-family:'Montserrat ExtraBold Alt1';font-variant-ligatures:none;text-align:center;text-anchor:middle" d="m 782.24188,-1.656 c 1.58399,1.584 3.52799,2.304 5.832,2.304 2.304,0 4.24799,-0.72 5.832,-2.304 1.58399,-1.512 2.376,-3.456 2.376,-5.832 0,-2.376 -0.79201,-4.32 -2.304,-5.832 -1.58401,-1.44 -3.528,-2.232 -5.904,-2.232 -2.37601,0 -4.32001,0.792 -5.904,2.232 -1.58401,1.512 -2.30401,3.456 -2.30401,5.832 0,2.376 0.792,4.32 2.37601,5.832 z" stroke-width="0" stroke-linejoin="miter" stroke-miterlimit="2" fill="#000000" stroke="#000000" transform="translate(0 272.431612) translate(333.96280160000026 210.16709600000004) scale(2.43) translate(-779.86587 15.552)"></path>
      </g>
      <image xlink:href="" id="icon" style="display: none;" x="0" y="0"></image>
    </g>
  </g>
</svg>