<svg width="33" height="36" viewBox="0 0 33 36" fill="none" xmlns="http://www.w3.org/2000/svg">
<path d="M27.0273 23.5216C25.4697 23.5212 23.974 24.131 22.8609 25.2204L12.0103 19.1198C12.2333 18.1997 12.2333 17.2396 12.0103 16.3195L22.8575 10.2188C23.8709 11.2045 25.202 11.7974 26.6126 11.8912C28.0232 11.9851 29.4211 11.5738 30.5561 10.731C31.6911 9.88823 32.4891 8.66897 32.8072 7.29153C33.1254 5.91408 32.9428 4.46838 32.2923 3.21324C31.6417 1.9581 30.5657 0.975481 29.2568 0.441292C27.9479 -0.0928972 26.4916 -0.143775 25.1487 0.297766C23.8057 0.739308 22.6637 1.64444 21.9272 2.85112C21.1906 4.0578 20.9076 5.48723 21.1288 6.88352L10.0257 13.1292C9.15354 12.4026 8.09241 11.9396 6.96659 11.7943C5.84076 11.6491 4.69687 11.8277 3.66891 12.3093C2.64095 12.7908 1.77151 13.5553 1.16243 14.5132C0.553347 15.4711 0.229858 16.5828 0.229858 17.7179C0.229858 18.8531 0.553347 19.9647 1.16243 20.9226C1.77151 21.8805 2.64095 22.645 3.66891 23.1266C4.69687 23.6081 5.84076 23.7867 6.96659 23.6415C8.09241 23.4963 9.15354 23.0333 10.0257 22.3066L21.1288 28.5557C20.9369 29.762 21.1194 30.9981 21.6518 32.0975C22.1841 33.1968 23.0407 34.1065 24.1061 34.7039C25.1715 35.3013 26.3944 35.5576 27.6101 35.4385C28.8257 35.3193 29.9755 34.8303 30.9046 34.0373C31.8337 33.2444 32.4973 32.1857 32.806 31.0039C33.1147 29.8221 33.0537 28.5741 32.6312 27.4281C32.2086 26.282 31.4448 25.2931 30.4428 24.5946C29.4408 23.8961 28.2487 23.5216 27.0273 23.5216Z" fill="white"/>
</svg>
