<svg width="20" height="20" viewBox="0 0 20 20" fill="none" xmlns="http://www.w3.org/2000/svg">
<path d="M16.5 5C16.8978 5 17.2794 4.84196 17.5607 4.56066C17.842 4.27936 18 3.89782 18 3.5C18 3.10218 17.842 2.72064 17.5607 2.43934C17.2794 2.15804 16.8978 2 16.5 2C16.1022 2 15.7206 2.15804 15.4393 2.43934C15.158 2.72064 15 3.10218 15 3.5C15 3.89782 15.158 4.27936 15.4393 4.56066C15.7206 4.84196 16.1022 5 16.5 5ZM0.59 9.58L9.59 0.58C9.95 0.22 10.45 0 11 0H18C19.11 0 20 0.89 20 2V9C20 9.55 19.78 10.05 19.41 10.41L10.42 19.41C10.05 19.77 9.55 20 9 20C8.45 20 7.95 19.77 7.59 19.41L0.59 12.41C0.22 12.05 0 11.55 0 11C0 10.44 0.23 9.94 0.59 9.58Z" fill="#F07167"/>
</svg>
