<svg width="19" height="23" viewBox="0 0 19 23" fill="none" xmlns="http://www.w3.org/2000/svg">
<path d="M9.84003 0.0421143C7.48512 0.0449777 5.22749 0.981729 3.56232 2.6469C1.89714 4.31207 0.960392 6.56971 0.957529 8.92461C0.954748 10.8491 1.58345 12.7213 2.74719 14.2541C2.74719 14.2541 2.98944 14.5727 3.02836 14.6189L9.84003 22.6521L16.6545 14.6154C16.6904 14.5723 16.9329 14.2538 16.9329 14.2538L16.9341 14.2519C18.0971 12.7197 18.7254 10.8482 18.7225 8.92461C18.7197 6.56971 17.7829 4.31207 16.1177 2.6469C14.4526 0.981729 12.1949 0.0449777 9.84003 0.0421143ZM13.2403 9.49156L9.84164 12.9621L6.43973 9.49156C6.031 9.06987 5.80244 8.50566 5.80244 7.91839C5.80244 7.33112 6.031 6.76691 6.43973 6.34522C6.64003 6.13933 6.87957 5.97567 7.14419 5.86393C7.40881 5.75218 7.69315 5.69461 7.9804 5.69461C8.26765 5.69461 8.55198 5.75218 8.8166 5.86393C9.08122 5.97567 9.32076 6.13933 9.52107 6.34522L9.84164 6.67282L10.159 6.34522C10.3593 6.13933 10.5988 5.97567 10.8635 5.86393C11.1281 5.75218 11.4124 5.69461 11.6997 5.69461C11.9869 5.69461 12.2712 5.75218 12.5359 5.86393C12.8005 5.97567 13.04 6.13933 13.2403 6.34522C13.6491 6.76691 13.8776 7.33112 13.8776 7.91839C13.8776 8.50566 13.6491 9.06987 13.2403 9.49156Z" fill="#F07167"/>
</svg>
