<svg width="46" height="26" viewBox="0 0 46 26" fill="none" xmlns="http://www.w3.org/2000/svg">
<path fill-rule="evenodd" clip-rule="evenodd" d="M45.6463 23.2905C45.6463 22.834 45.449 22.3962 45.0978 22.0733C44.7467 21.7505 44.2703 21.5692 43.7737 21.5692H32.5376C32.041 21.5692 31.5646 21.7505 31.2134 22.0733C30.8622 22.3962 30.6649 22.834 30.6649 23.2905C30.6649 23.747 30.8622 24.1849 31.2134 24.5077C31.5646 24.8305 32.041 25.0119 32.5376 25.0119H43.7737C44.2703 25.0119 44.7467 24.8305 45.0978 24.5077C45.449 24.1849 45.6463 23.747 45.6463 23.2905ZM45.6463 12.9625C45.6463 12.5059 45.449 12.0681 45.0978 11.7453C44.7467 11.4225 44.2703 11.2411 43.7737 11.2411H17.5562C17.0596 11.2411 16.5832 11.4225 16.232 11.7453C15.8808 12.0681 15.6835 12.5059 15.6835 12.9625C15.6835 13.419 15.8808 13.8568 16.232 14.1796C16.5832 14.5025 17.0596 14.6838 17.5562 14.6838H43.7737C44.2703 14.6838 44.7467 14.5025 45.0978 14.1796C45.449 13.8568 45.6463 13.419 45.6463 12.9625ZM45.6463 2.63443C45.6463 2.1779 45.449 1.74007 45.0978 1.41726C44.7467 1.09444 44.2703 0.913086 43.7737 0.913086H2.57482C2.07816 0.913086 1.60184 1.09444 1.25064 1.41726C0.899448 1.74007 0.702148 2.1779 0.702148 2.63443C0.702148 3.09095 0.899448 3.52878 1.25064 3.8516C1.60184 4.17441 2.07816 4.35577 2.57482 4.35577H43.7737C44.2703 4.35577 44.7467 4.17441 45.0978 3.8516C45.449 3.52878 45.6463 3.09095 45.6463 2.63443Z" fill="white"/>
</svg>
