<svg width="115" height="113" viewBox="0 0 115 113" fill="none" xmlns="http://www.w3.org/2000/svg">
<path d="M57.2339 7.62939e-06C25.6285 7.62939e-06 0 25.2999 0 56.5C0 87.7001 25.6285 113 57.2339 113C88.8392 113 114.468 87.7001 114.468 56.5C114.468 25.2999 88.8392 7.62939e-06 57.2339 7.62939e-06ZM85.8508 56.5C85.8303 63.9861 82.8087 71.1599 77.4464 76.4534C72.0842 81.7469 64.8172 84.7298 57.2339 84.75C49.6515 84.7266 42.3864 81.7427 37.0248 76.4499C31.6633 71.1571 28.6406 63.9852 28.6169 56.5C28.6439 49.0158 31.6675 41.8458 37.0284 36.5536C42.3893 31.2615 49.6525 28.2766 57.2339 28.25C64.8163 28.2734 72.0813 31.2573 77.4429 36.5501C82.8045 41.8429 85.8271 49.0148 85.8508 56.5ZM70.6675 27.0958C66.563 25.2595 62.0252 24.2143 57.2339 24.2143C52.4426 24.2143 47.9047 25.2595 43.8003 27.0958L31.7484 15.1985C39.4128 10.5427 48.2347 8.07565 57.2339 8.07144C66.5752 8.07144 75.2789 10.7068 82.7193 15.1985L70.6675 27.0958ZM27.4477 69.7614L15.3959 81.6586C10.8458 74.3177 8.17627 65.7216 8.17627 56.5C8.17627 47.2784 10.8458 38.6823 15.3959 31.3414L27.4477 43.2386C25.5917 47.2905 24.5288 51.7701 24.5288 56.5C24.5288 61.2299 25.5917 65.7095 27.4477 69.7614ZM43.8003 85.9042C47.9047 87.7405 52.4426 88.7857 57.2339 88.7857C62.0252 88.7857 66.563 87.7405 70.6675 85.9042L82.7193 97.8015C75.0549 102.457 66.2331 104.924 57.2339 104.929C47.8925 104.929 39.1888 102.293 31.7484 97.8015L43.8003 85.9042ZM87.02 43.2386L99.0718 31.3414C103.622 38.6823 106.291 47.2784 106.291 56.5C106.291 65.7216 103.622 74.3177 99.0718 81.6586L87.02 69.7614C88.876 65.7095 89.9389 61.2299 89.9389 56.5C89.9389 51.7701 88.876 47.2905 87.02 43.2386Z" fill="#F07167"/>
</svg>
