<svg width="129" height="114" viewBox="0 0 129 114" fill="none" xmlns="http://www.w3.org/2000/svg">
<path d="M101.597 63.3786L77.7066 82.2277H45.6481V75.9025H71.7116C74.2699 75.9025 75.8023 73.0878 74.3789 70.9878L68.6853 62.5626C66.313 59.0395 62.3121 56.9269 58.0227 56.9269H45.6481H7.17804C3.63238 56.9269 0.766357 59.7542 0.766357 63.2521V101.203C0.766357 108.186 6.51123 113.854 13.5897 113.854H75.392C80.9381 113.854 86.2149 111.494 89.8695 107.377L129 63.2521L119.69 60.1907C113.503 58.154 106.694 59.3558 101.597 63.3786ZM86.7022 56.9269C97.3263 56.9269 105.937 48.4321 105.937 37.9512C105.937 20.8226 86.7022 0 86.7022 0C86.7022 0 67.4671 20.6898 67.4671 37.9512C67.4671 48.4321 76.0844 56.9269 86.7022 56.9269Z" fill="#F07167"/>
</svg>
