<svg width="125" height="113" viewBox="0 0 125 113" fill="none" xmlns="http://www.w3.org/2000/svg">
<path d="M67.1865 6.96618C73.4164 2.52755 80.643 0.308238 88.8042 0.308238C93.2897 0.308238 98.2113 1.47954 103.569 3.94545C108.927 6.3497 113.163 9.18549 116.278 12.4528C122.695 20.3437 125.373 29.5292 124.439 40.0093C123.442 50.4894 119.954 58.6885 113.911 64.4834L66.6258 111.274C65.4421 112.445 63.947 113 62.2026 113C60.4582 113 59.0254 112.445 57.8417 111.274C56.658 110.103 56.0973 108.685 56.0973 106.959C56.0973 105.232 56.658 103.753 57.8417 102.582L86.4368 74.2853C87.9943 72.9291 87.9943 71.5112 86.4368 69.97C84.8793 68.4288 83.4465 68.4288 82.0759 69.97L53.4808 98.2662C52.2971 99.4375 50.8642 99.9924 49.0576 99.9924C47.3132 99.9924 45.8803 99.4375 44.6967 98.2662C43.513 97.0949 42.9523 95.677 42.9523 93.9509C42.9523 92.2248 43.513 90.7452 44.6967 89.5739L73.2918 61.2777C74.9738 59.7365 74.9738 58.1953 73.2918 56.6541C71.8589 55.1129 70.4883 55.1129 68.9309 56.6541L40.3358 85.2586C39.1521 86.4299 37.5946 86.9847 35.9126 86.9847C34.1682 86.9847 32.673 86.4299 31.3647 85.2586C30.1188 84.0873 29.4958 82.6694 29.4958 80.9433C29.4958 79.2171 30.1811 77.6759 31.5516 76.3197L60.209 47.9618C61.7665 46.4206 61.7665 45.0027 60.209 43.6465C58.6516 42.2902 57.1564 42.2902 55.7858 43.6465L26.8792 72.066C25.5087 73.299 24.0758 73.9771 22.5183 73.9771C20.774 73.9771 19.2788 73.3606 18.1574 72.066C16.9737 70.8331 16.3508 69.3535 16.3508 67.6274C16.3508 65.9013 16.9737 64.4834 18.1574 63.3121C37.2208 44.3246 48.9953 32.8582 53.4808 28.6045L75.6591 50.3044C78.0888 52.5854 80.8922 53.7567 84.3186 53.7567C88.6796 53.7567 92.106 52.0305 94.6602 48.5783C96.4046 46.0507 97.0276 43.2766 96.5292 40.1942C96.0308 37.1118 94.7225 34.5226 92.6044 32.365L67.1865 6.96618ZM80.02 45.9891L53.4808 19.6656L9.3733 63.3121C4.14021 58.072 1.14987 50.0578 0.464588 39.1462C-0.220698 28.2962 2.76964 18.8642 9.3733 10.9733C16.7868 3.69886 25.6333 0 35.9126 0C46.2541 0 55.0383 3.69886 62.2026 10.9733L88.8042 37.2968C89.9878 38.4681 90.5485 39.886 90.5485 41.6121C90.5485 43.3382 89.9878 44.8178 88.8042 45.9891C87.6205 47.0987 86.1876 47.7152 84.3186 47.7152C82.6366 47.7152 81.2037 47.0987 80.02 45.9891Z" fill="#F07167"/>
</svg>
