<svg width="79" height="79" viewBox="0 0 79 79" fill="none" xmlns="http://www.w3.org/2000/svg">
<path d="M70.5904 40.3937H38.7616V8.56493C38.7616 8.17374 38.4416 7.85367 38.0504 7.85367H35.7388C31.0685 7.84603 26.4428 8.76191 22.1278 10.5486C17.8128 12.3354 13.8936 14.9577 10.5959 18.2647C7.34818 21.5024 4.76045 25.3402 2.97653 29.5648C1.1202 33.9465 0.167642 38.6578 0.175957 43.4165C0.16831 48.0868 1.0842 52.7125 2.87093 57.0275C4.65766 61.3425 7.27997 65.2617 10.587 68.5595C13.8499 71.8223 17.6551 74.3918 21.8871 76.1788C26.2688 78.0351 30.9801 78.9877 35.7388 78.9794C40.4091 78.987 45.0348 78.0711 49.3498 76.2844C53.6648 74.4977 57.584 71.8754 60.8817 68.5683C64.1446 65.3055 66.714 61.5002 68.5011 57.2682C70.3574 52.8866 71.31 48.1752 71.3016 43.4165V41.1049C71.3016 40.7137 70.9816 40.3937 70.5904 40.3937ZM56.5164 64.3808C53.7634 67.1124 50.4984 69.2739 46.9086 70.7416C43.3188 72.2092 39.4747 72.9541 35.5965 72.9337C27.7638 72.8981 20.4023 69.8308 14.8634 64.2919C9.28894 58.7174 6.22164 51.3026 6.22164 43.4165C6.22164 35.5305 9.28894 28.1156 14.8634 22.5411C19.7177 17.6868 25.9679 14.7262 32.716 14.0505V46.4394H65.1048C64.4202 53.223 61.433 59.5087 56.5164 64.3808ZM78.4142 35.4504L78.1831 32.9433C77.4273 24.7549 73.791 17.0289 67.941 11.1966C62.0868 5.35357 54.3766 1.73745 46.1409 0.972262L43.6249 0.741104C43.207 0.705541 42.8514 1.02561 42.8514 1.44347V35.5927C42.8514 35.9839 43.1714 36.3039 43.5626 36.3039L77.703 36.215C78.1208 36.215 78.4498 35.8594 78.4142 35.4504ZM48.8793 30.276V7.46248C54.4798 8.6347 59.6194 11.4083 63.6734 15.4463C67.7365 19.5005 70.5193 24.6571 71.6751 30.2138L48.8793 30.276Z" fill="#F07167"/>
</svg>
