<svg width="87" height="85" viewBox="0 0 87 85" fill="none" xmlns="http://www.w3.org/2000/svg">
<path d="M53.7117 64.3455H82.5326V83.0462H53.7117V64.3455Z" fill="white"/>
<path d="M47.1009 40.1335H29.5849C29.2002 40.1376 28.8324 40.2796 28.56 40.5292L2.27057 64.5716C2.13546 64.6951 2.02824 64.8419 1.95507 65.0035C1.88191 65.1652 1.84424 65.3386 1.84424 65.5137C1.84424 65.6888 1.88191 65.8622 1.95507 66.0239C2.02824 66.1856 2.13546 66.3324 2.27057 66.4558L19.7968 82.4715C20.0681 82.7229 20.4366 82.8652 20.8218 82.8672C21.2064 82.8632 21.5742 82.7212 21.8467 82.4715L48.1361 58.448C48.2719 58.3248 48.3799 58.1782 48.4538 58.0165C48.5277 57.8548 48.566 57.6812 48.5665 57.5059V41.4901C48.5693 41.3121 48.5333 41.1353 48.4607 40.9702C48.3882 40.8051 48.2805 40.655 48.144 40.5286C48.0075 40.4023 47.8449 40.3022 47.6658 40.2344C47.4867 40.1665 47.2946 40.1322 47.1009 40.1335Z" fill="#B4B4B4"/>
<path d="M13.0016 64.355C14.3135 63.1491 15.7689 63.2527 17.1013 64.5151L17.3678 64.7601L16.1379 65.9L15.7792 65.5703C15.1642 65.005 14.6927 65.0238 14.2623 65.4101C13.8318 65.7964 13.8215 66.2392 14.4365 66.8044C16.1994 68.4248 19.1614 66.3051 21.611 68.5567C22.9844 69.8191 23.0766 71.1663 21.7545 72.3816C20.4323 73.597 18.9667 73.5028 17.5933 72.2498L17.0706 71.7693L18.3415 70.6105L18.9564 71.1758C19.5611 71.741 20.0531 71.6939 20.4836 71.2982C20.914 70.9026 20.955 70.4503 20.3503 69.8945C18.5875 68.2741 15.6254 70.3844 13.1758 68.1422C11.8024 66.8986 11.6897 65.5608 13.0016 64.355Z" fill="white"/>
<path d="M29.3901 65.2122L28.0372 66.4652L26.2539 65.2499L24.5935 66.7667L25.9156 68.4059L24.696 69.5459L17.5215 60.4169L19.4893 58.6081L29.3901 65.2122ZM23.6096 65.542L24.901 64.3549L19.9198 60.9728L23.6096 65.542Z" fill="white"/>
<path d="M22.062 56.2152L23.4047 54.981L30.7431 61.7265L32.957 59.6915L34.1767 60.8126L30.6202 64.0817L22.062 56.2152Z" fill="white"/>
<path d="M31.7783 53.9165L33.6231 52.2207L34.8428 53.3418L32.9979 55.0376L35.509 57.3457L37.8356 55.2072L39.045 56.3377L35.3758 59.7104L26.8176 51.8439L30.4869 48.4711L31.7065 49.5922L29.3902 51.7685L31.7783 53.9165Z" fill="white"/>
<path d="M81.067 50.9583H48.5563C48.0671 50.9583 47.5978 50.7796 47.2518 50.4616C46.9058 50.1436 46.7115 49.7122 46.7115 49.2625C46.7115 48.8127 46.9058 48.3814 47.2518 48.0634C47.5978 47.7453 48.0671 47.5667 48.5563 47.5667H81.067C81.5385 47.5667 82.2354 47.0014 82.5224 46.097C83.0349 44.4766 82.0305 42.7337 79.8269 41.3865L47.1112 25.8701C46.8053 25.7306 46.5476 25.5159 46.3666 25.2497C46.1857 24.9836 46.0886 24.6766 46.0863 24.3627V15.8838C46.0863 15.4341 46.2806 15.0027 46.6266 14.6847C46.9726 14.3667 47.4418 14.188 47.9311 14.188C51.8259 14.188 55.6386 11.5125 55.6386 8.7898C55.6591 8.08226 55.5254 7.3781 55.2452 6.71881C54.9651 6.05952 54.5442 5.45843 54.0074 4.95097C53.4706 4.44351 52.8288 4.03994 52.1196 3.76403C51.4105 3.48812 50.6485 3.34546 49.8785 3.34446C48.3245 3.34945 46.836 3.92039 45.739 4.93221C44.6421 5.94404 44.0262 7.31426 44.0262 8.7427C44.0262 9.19245 43.8318 9.62378 43.4858 9.9418C43.1398 10.2598 42.6706 10.4385 42.1813 10.4385C41.692 10.4385 41.2228 10.2598 40.8768 9.9418C40.5308 9.62378 40.3364 9.19245 40.3364 8.7427C40.3364 6.42399 41.3385 4.20025 43.1222 2.56068C44.906 0.921103 47.3252 0 49.8478 0C52.3703 0 54.7896 0.921103 56.5733 2.56068C58.357 4.20025 59.3591 6.42399 59.3591 8.7427C59.3591 13.2083 54.6239 16.6658 49.8068 17.3912V23.3264L81.6307 38.4943C86.0892 41.1227 86.7554 44.6179 86.0277 47.0485C85.7593 48.0998 85.1339 49.0453 84.2421 49.7481C83.3503 50.451 82.2383 50.8748 81.067 50.9583Z" fill="#F07167"/>
<path d="M18.977 50.9583C17.7676 50.8737 16.6189 50.4373 15.6975 49.7123C14.776 48.9873 14.1298 48.0114 13.8523 46.9261C12.8274 43.8171 14.4058 40.6988 17.9521 38.5791L39.6908 25.7759C40.0958 25.5958 40.5585 25.5579 40.9918 25.6695C41.4251 25.781 41.7991 26.0343 42.0434 26.3816C42.2877 26.7289 42.3856 27.1463 42.3185 27.5553C42.2514 27.9642 42.024 28.3366 41.6791 28.6022L19.9712 41.4054C17.8086 42.6866 16.8964 44.3353 17.3678 45.9463C17.4443 46.3256 17.636 46.6773 17.9208 46.9607C18.2055 47.2441 18.5717 47.4477 18.977 47.5479C19.4663 47.5479 19.9355 47.7265 20.2815 48.0445C20.6275 48.3626 20.8218 48.7939 20.8218 49.2436C20.8218 49.6934 20.6275 50.1247 20.2815 50.4427C19.9355 50.7608 19.4663 50.9394 18.977 50.9394V50.9583Z" fill="#F07167"/>
<path d="M20.8218 84.5819C20.3897 84.5819 19.9619 84.5037 19.5627 84.3518C19.1635 84.1998 18.8008 83.9771 18.4952 83.6963L0.968952 67.6806C0.66185 67.3996 0.418161 67.0656 0.25188 66.6978C0.0855983 66.33 0 65.9356 0 65.5373C0 65.139 0.0855983 64.7446 0.25188 64.3768C0.418161 64.009 0.66185 63.675 0.968952 63.394L27.2481 39.3233C27.5552 39.0418 27.9196 38.8187 28.3206 38.6667C28.7216 38.5148 29.1512 38.437 29.5849 38.4377H47.1009C47.9762 38.4377 48.8156 38.7574 49.4346 39.3263C50.0535 39.8952 50.4012 40.6668 50.4012 41.4713V57.487C50.3934 57.8896 50.2989 58.2867 50.1229 58.6554C49.947 59.0242 49.6932 59.3571 49.3763 59.635L23.1586 83.6963C22.5371 84.2631 21.6973 84.5814 20.8218 84.5819ZM3.849 65.5137L20.8218 81.049L46.7114 57.3457V41.8293H29.7387L3.849 65.5137Z" fill="white"/>
<path d="M40.1827 50.8169C42.028 50.8169 43.524 49.4503 43.524 47.7645C43.524 46.0787 42.028 44.7121 40.1827 44.7121C38.3374 44.7121 36.8414 46.0787 36.8414 47.7645C36.8414 49.4503 38.3374 50.8169 40.1827 50.8169Z" fill="white"/>
<path d="M40.1827 51.8815C38.9938 51.8815 37.8535 51.448 37.012 50.6762C36.1704 49.9044 35.6962 48.8573 35.6935 47.7645C35.6935 47.2231 35.8097 46.6869 36.0354 46.1868C36.2611 45.6867 36.592 45.2325 37.009 44.85C37.4259 44.4676 37.9209 44.1646 38.4655 43.9582C39.0101 43.7519 39.5936 43.6463 40.1827 43.6475C41.3706 43.6475 42.5098 44.0813 43.3497 44.8534C44.1897 45.6255 44.6616 46.6726 44.6616 47.7645C44.6616 48.8564 44.1897 49.9036 43.3497 50.6757C42.5098 51.4477 41.3706 51.8815 40.1827 51.8815ZM40.1827 45.7673C39.8955 45.7658 39.6109 45.8166 39.3452 45.9169C39.0796 46.0172 38.8382 46.1648 38.635 46.3514C38.4356 46.5376 38.2786 46.7585 38.173 47.0011C38.0674 47.2437 38.0154 47.5032 38.0201 47.7645C38.018 48.1618 38.1443 48.5507 38.383 48.8819C38.6216 49.2132 38.9619 49.4718 39.3606 49.6251C39.7593 49.7785 40.1986 49.8196 40.6227 49.7432C41.0469 49.6668 41.4368 49.4765 41.7432 49.1962C42.0495 48.9159 42.2585 48.5584 42.3435 48.1689C42.4286 47.7794 42.386 47.3754 42.221 47.0082C42.0561 46.641 41.7763 46.327 41.4171 46.1061C41.0579 45.8852 40.6354 45.7673 40.2032 45.7673H40.1827Z" fill="#576065"/>
<path d="M40.5824 48.3203C40.0931 48.3203 39.6238 48.1417 39.2779 47.8237C38.9319 47.5056 38.7375 47.0743 38.7375 46.6246C38.5791 46.1862 38.3361 45.7778 38.0201 45.4187C37.0111 44.2636 36.3691 42.8747 36.1649 41.4053C36.0419 40.1335 36.8926 38.579 38.389 35.96C39.5472 33.925 41.7098 30.1472 41.1666 29.0355C41.1666 28.9413 40.9103 28.8754 40.7361 28.8283C40.2797 28.7047 39.8928 28.4238 39.6564 28.0442C39.4199 27.6647 39.3522 27.2158 39.4673 26.7914C39.5824 26.367 39.8714 25.9999 40.274 25.7668C40.6766 25.5336 41.1617 25.4525 41.6278 25.5403C42.2574 25.6585 42.8479 25.9111 43.3517 26.2777C43.8556 26.6443 44.2586 27.1146 44.5283 27.6506C45.8095 30.2697 43.6982 33.9627 41.6483 37.5427C40.9072 38.6967 40.2992 39.9186 39.8342 41.1886C40.0054 42.0343 40.4154 42.8238 41.0231 43.4779C41.8422 44.3635 42.3339 45.4654 42.4272 46.6246C42.4272 47.0743 42.2329 47.5056 41.8869 47.8237C41.5409 48.1417 41.0717 48.3203 40.5824 48.3203Z" fill="#576065"/>
<path d="M82.5326 84.742H53.7117C53.2224 84.742 52.7532 84.5633 52.4072 84.2453C52.0612 83.9273 51.8668 83.496 51.8668 83.0462V64.3455C51.8668 63.8957 52.0612 63.4644 52.4072 63.1464C52.7532 62.8284 53.2224 62.6497 53.7117 62.6497H82.5326C83.0219 62.6497 83.4912 62.8284 83.8372 63.1464C84.1831 63.4644 84.3775 63.8957 84.3775 64.3455V83.0462C84.3775 83.496 84.1831 83.9273 83.8372 84.2453C83.4912 84.5633 83.0219 84.742 82.5326 84.742ZM55.5566 81.3504H80.6878V66.0413H55.5566V81.3504Z" fill="#576065"/>
<path d="M68.2452 65.052H68.0607C67.333 64.9861 60.8862 64.3361 58.1599 61.8206C57.0514 60.7952 56.4293 59.4083 56.4293 57.9627C56.4293 56.5172 57.0514 55.1303 58.1599 54.1048C59.2911 53.1098 60.7964 52.5544 62.3621 52.5544C63.9278 52.5544 65.4331 53.1098 66.5643 54.1048C69.3008 56.6202 70.008 62.5837 70.0798 63.2055C70.1086 63.4427 70.0827 63.6829 70.0036 63.9102C69.9246 64.1376 69.7942 64.347 69.621 64.5249C69.4479 64.7027 69.2358 64.845 68.9987 64.9423C68.7616 65.0397 68.5048 65.0899 68.2452 65.0897V65.052ZM62.3621 55.8854C61.9156 55.883 61.4785 56.003 61.1066 56.2301C60.7347 56.4572 60.4449 56.7812 60.2744 57.1604C60.1038 57.5397 60.0602 57.9572 60.1491 58.3594C60.238 58.7616 60.4554 59.1302 60.7734 59.4183C61.7369 60.3039 64.0532 60.9539 66.0313 61.3025C65.6111 59.4183 64.9039 57.3457 63.9815 56.4695C63.7689 56.2754 63.5159 56.1228 63.2377 56.0208C62.9594 55.9188 62.6616 55.8696 62.3621 55.876V55.8854Z" fill="#576065"/>
<path d="M68.2452 65.0521C67.9855 65.0522 67.7288 65.002 67.4917 64.9047C67.2546 64.8073 67.0425 64.6651 66.8694 64.4872C66.6962 64.3094 66.5658 64.0999 66.4867 63.8726C66.4077 63.6452 66.3817 63.4051 66.4106 63.1679C66.4823 62.499 67.1998 56.5732 69.9363 54.0672C71.067 53.0749 72.5702 52.5212 74.1334 52.5212C75.6967 52.5212 77.1998 53.0749 78.3305 54.0672C79.4389 55.0927 80.0611 56.4795 80.0611 57.9251C80.0611 59.3707 79.4389 60.7575 78.3305 61.783C75.5939 64.2984 69.1062 64.9579 68.4297 65.0238L68.2452 65.0521ZM74.1283 55.8854C73.8333 55.8846 73.541 55.9374 73.2684 56.0409C72.9957 56.1444 72.748 56.2965 72.5397 56.4884C71.5865 57.3645 70.869 59.4466 70.4898 61.3308C72.5397 60.9445 74.7945 60.2945 75.7579 59.4466C76.1773 59.0583 76.4126 58.5334 76.4126 57.9863C76.4126 57.4392 76.1773 56.9143 75.7579 56.5261C75.5491 56.3211 75.2967 56.1576 75.0164 56.0458C74.7361 55.934 74.4339 55.8762 74.1283 55.876V55.8854Z" fill="#576065"/>
<path d="M66.2422 81.7769L66.3415 64.9041L70.0312 64.9224L69.9319 81.7952L66.2422 81.7769Z" fill="#576065"/>
</svg>
