<svg xmlns="http://www.w3.org/2000/svg" width="327.009" height="317.086" viewBox="0 0 327.009 317.086">
  <g id="Group_11448" data-name="Group 11448" transform="translate(-1049.566 -408.853)">
    <path id="Path_12552" data-name="Path 12552" d="M257.645,106.671a196.108,196.108,0,0,1-40.966,4.285c-2.777-.069-5.576-.229-8.376-.491a106.038,106.038,0,0,1-16.946-2.9,59.155,59.155,0,0,0-9.484-1.931,51.94,51.94,0,0,0-9.61-.24c-22.831,1.463-42.965,18.032-43.32,40.5.868,18.843,10.2,36.532,15.552,55.192a68.482,68.482,0,0,1-.114,11.347,65.422,65.422,0,0,1-2.1,11.564c-.8,3.291-1.783,6.582-2.811,9.873-4.125,13.141-8.993,26.133-11.073,38.989a43.882,43.882,0,0,0-.389,8.2,36.736,36.736,0,0,0,4.536,16.078c13.187,20.6,38.977,32.567,64.482,29.15,3.417-.149,6.845-.423,10.261-.766a50.294,50.294,0,0,0,8.3-2.045c13.415-4.525,25-14.169,36.669-21.78,14.112-9.21,30.853-14.409,47.41-17.152,18.306-3.028,37.24.594,55.638,2.023,3.108.24,6.262.411,9.45.583,32.83,6.228,88.9.229,90.216-44.645a36.546,36.546,0,0,0-2.251-9.656c-4.662-12.49-15-23.654-20.043-35.424-1.531-3.165-2.9-6.342-4.137-9.564a138.965,138.965,0,0,1-8.9-50.244c-.091-3.508-.126-6.993-.16-10.467-.126-10.376-.48-20.66-2.32-30.51a43.754,43.754,0,0,0-2.48-7.348A35.373,35.373,0,0,0,410.72,82.5a40.286,40.286,0,0,0-5.6-7.142,37.8,37.8,0,0,0-16.386-9.7,63.7,63.7,0,0,0-8.639-1.794c-14.592-2-29.95.651-44.451,4.079q-5.108,1.2-10.067,2.845A133.186,133.186,0,0,0,302.953,81.9c-2.4,1.44-4.776,2.925-7.153,4.422a158.353,158.353,0,0,1-29.207,17.757C264,104.969,261.016,105.826,257.645,106.671Z" transform="translate(921.61 345.676)" fill="#e6e6e6"/>
    <g id="Group_11389" data-name="Group 11389" transform="translate(1099.726 422.15)">
      <g id="Group_11387" data-name="Group 11387" transform="translate(10.875 0)">
        <g id="Group_11385" data-name="Group 11385">
          <g id="Group_11383" data-name="Group 11383">
            <path id="Path_12840" data-name="Path 12840" d="M381.281,425.974,367.03,228.341,323.936,202.4H205.28l16.128,223.574Z" transform="translate(-203.269 -200.309)" fill="#fff"/>
            <path id="Path_12841" data-name="Path 12841" d="M382.82,429.623H222.948a2.084,2.084,0,0,1-2.048-1.92L204.814,204.129a2.18,2.18,0,0,1,.555-1.579,2,2,0,0,1,1.493-.64H325.476a1.926,1.926,0,0,1,1.067.3l43.136,25.941a2.063,2.063,0,0,1,.981,1.621L384.911,427.4a2.05,2.05,0,0,1-2.091,2.219Zm-157.953-4.139H380.6L366.607,231.137l-41.728-25.088H209.038Z" transform="translate(-204.809 -201.91)" fill="#34946e"/>
          </g>
          <g id="Group_11384" data-name="Group 11384" transform="translate(118.6 0.04)">
            <path id="Path_12842" data-name="Path 12842" d="M276.184,228.341,233.09,202.4l15.829,34.347Z" transform="translate(-231.023 -200.35)" fill="#36926e"/>
            <path id="Path_12843" data-name="Path 12843" d="M250.5,240.407a2.12,2.12,0,0,1-1.877-1.195L232.8,204.823a2.034,2.034,0,0,1,.512-2.389,2.057,2.057,0,0,1,2.432-.213l43.136,25.941a2.1,2.1,0,0,1,.981,2.005,2.014,2.014,0,0,1-1.451,1.707L251.1,240.322A2.881,2.881,0,0,1,250.5,240.407Zm-11.136-31.232L251.654,235.8l21.163-6.528Z" transform="translate(-232.606 -201.919)" fill="#36926e"/>
          </g>
        </g>
        <g id="Group_11386" data-name="Group 11386" transform="translate(40.365 93.782)">
          <path id="Path_12844" data-name="Path 12844" d="M234.8,232.935a8.318,8.318,0,0,1-8.363,9.045,9.891,9.891,0,0,1-9.685-9.045,8.318,8.318,0,0,1,8.363-9.045A9.923,9.923,0,0,1,234.8,232.935Z" transform="translate(-206.215 -223.89)" fill="#3b926e"/>
          <path id="Path_12845" data-name="Path 12845" d="M248.535,232.935a8.318,8.318,0,0,1-8.363,9.045,9.86,9.86,0,0,1-9.685-9.045,8.318,8.318,0,0,1,8.363-9.045A9.86,9.86,0,0,1,248.535,232.935Z" transform="translate(-161.363 -223.89)" fill="#3b926e"/>
          <path id="Path_12846" data-name="Path 12846" d="M318,264.534a2.052,2.052,0,0,1-2.048-1.92c-1.067-14.507-23.808-26.325-50.774-26.325-17.835,0-33.877,5.291-41.856,13.867-3.541,3.8-5.163,7.893-4.864,12.2a2.075,2.075,0,1,1-4.139.3c-.384-5.419,1.664-10.709,5.973-15.317,8.7-9.344,25.9-15.189,44.885-15.189,29.568,0,53.675,13.269,54.912,30.166a2.063,2.063,0,0,1-1.92,2.219C318.08,264.491,318.038,264.534,318,264.534Z" transform="translate(-214.269 -196.907)" fill="#3b926e"/>
        </g>
        <path id="Path_12847" data-name="Path 12847" d="M214.764,232.363a1.964,1.964,0,0,1-1.408-.555,2.038,2.038,0,0,1-.128-2.9l9.045-9.771a2.053,2.053,0,1,1,3.029,2.773l-9.045,9.771A2.044,2.044,0,0,1,214.764,232.363Z" transform="translate(-179.089 -147.84)" fill="#33956c"/>
        <path id="Path_12848" data-name="Path 12848" d="M247.172,232.358a1.964,1.964,0,0,1-1.408-.555l-10.453-9.771a2.052,2.052,0,1,1,2.816-2.987l10.453,9.771a2,2,0,0,1,.085,2.9A2.173,2.173,0,0,1,247.172,232.358Z" transform="translate(-107.348 -147.835)" fill="#33956c"/>
      </g>
      <g id="Group_11388" data-name="Group 11388" transform="translate(0 269.227)">
        <path id="Path_12849" data-name="Path 12849" d="M202.26,265.15H211.9l13.909,18.475-1.323-18.475h9.728l2.389,33.408h-9.728l-13.824-18.347,1.323,18.347h-9.728Z" transform="translate(-202.26 -264.553)" fill="#403c54"/>
        <path id="Path_12850" data-name="Path 12850" d="M211.384,282.333c-.384-5.461.811-9.685,3.627-12.757,2.816-3.029,6.955-4.565,12.373-4.565q8.32,0,13.184,4.48c3.243,2.987,5.035,7.168,5.419,12.544a19.317,19.317,0,0,1-1.28,9.6,12.779,12.779,0,0,1-5.291,5.845,17.747,17.747,0,0,1-9.131,2.091,22.334,22.334,0,0,1-9.472-1.792,15.462,15.462,0,0,1-6.4-5.717A19.58,19.58,0,0,1,211.384,282.333Zm10.368.085c.256,3.371,1.024,5.8,2.389,7.253a6.8,6.8,0,0,0,5.291,2.219,5.89,5.89,0,0,0,4.992-2.176c1.109-1.451,1.536-4.053,1.28-7.765-.213-3.157-1.024-5.461-2.389-6.912a7.01,7.01,0,0,0-5.333-2.176,5.772,5.772,0,0,0-4.864,2.219C221.922,276.573,221.5,279,221.752,282.418Z" transform="translate(-172.685 -265.01)" fill="#403c54"/>
        <path id="Path_12851" data-name="Path 12851" d="M224.15,265.15h15.36a19.238,19.238,0,0,1,7.424,1.237,13.04,13.04,0,0,1,4.864,3.541,15.838,15.838,0,0,1,3.029,5.376,26.487,26.487,0,0,1,1.28,6.485,21.676,21.676,0,0,1-.64,8.32,12.413,12.413,0,0,1-3.029,4.949,9.937,9.937,0,0,1-4.48,2.645,23.707,23.707,0,0,1-6.1.9H226.5Zm10.88,7.595,1.323,18.261h2.517a10.457,10.457,0,0,0,4.565-.725,4.3,4.3,0,0,0,1.963-2.517,15.1,15.1,0,0,0,.341-5.8c-.256-3.541-1.024-5.973-2.261-7.253-1.237-1.323-3.2-1.963-5.888-1.963Z" transform="translate(-130.752 -264.553)" fill="#403c54"/>
        <path id="Path_12852" data-name="Path 12852" d="M255.449,293.054H243.716l-1.237,5.5H231.94l10.155-33.408h11.264l14.976,33.408H257.54Zm-2.688-7.211L248.2,273.811l-2.773,12.032Z" transform="translate(-105.305 -264.553)" fill="#403c54"/>
        <path id="Path_12853" data-name="Path 12853" d="M239.37,265.15h31.4l.6,8.235H260.831l1.792,25.174H252.3l-1.792-25.174H239.967Z" transform="translate(-81.034 -264.553)" fill="#403c54"/>
        <path id="Path_12854" data-name="Path 12854" d="M270.369,293.054H258.636l-1.237,5.5H246.86l10.155-33.408h11.264l14.976,33.408H272.46Zm-2.688-7.211-4.565-12.032-2.773,12.032Z" transform="translate(-56.566 -264.553)" fill="#403c54"/>
      </g>
    </g>
  </g>
</svg>
