<svg width="33" height="34" viewBox="0 0 33 34" fill="none" xmlns="http://www.w3.org/2000/svg">
<path fill-rule="evenodd" clip-rule="evenodd" d="M20.0035 20.4489C23.2407 17.148 23.2407 11.7962 20.0035 8.49527C16.7663 5.19437 11.5177 5.19437 8.28055 8.49527C5.04335 11.7962 5.04335 17.148 8.28055 20.4489C11.5177 23.7498 16.7663 23.7498 20.0035 20.4489ZM21.7619 26.2264C16.3976 29.8503 9.09911 29.2526 4.37291 24.4334C-1.02241 18.9319 -1.02241 10.0122 4.37291 4.51073C9.76823 -0.99076 18.5158 -0.99076 23.9111 4.51073C28.6373 9.32994 29.2234 16.7721 25.6695 22.2419L31.7264 28.4179C32.8054 29.5182 32.8054 31.3022 31.7264 32.4025C30.6473 33.5028 28.8978 33.5028 27.8187 32.4025L21.7619 26.2264Z" fill="#5A5A5A"/>
</svg>
