<svg width="300" height="301" viewBox="0 0 300 301" fill="none" xmlns="http://www.w3.org/2000/svg">
<rect y="0.0244141" width="300" height="300" rx="150" fill="#EAEDED"/>
<path d="M175.302 85.9326C168.787 78.8982 159.687 75.0244 149.642 75.0244C139.544 75.0244 130.414 78.8748 123.929 85.8657C117.373 92.9336 114.179 102.539 114.929 112.912C116.415 133.376 131.987 150.023 149.642 150.023C167.297 150.023 182.842 133.379 184.352 112.919C185.112 102.64 181.898 93.0541 175.302 85.9326V85.9326Z" fill="#888C95"/>
<path d="M208.57 225.021H90.7159C89.1733 225.041 87.6457 224.717 86.2441 224.072C84.8424 223.428 83.6022 222.479 82.6135 221.294C80.4372 218.693 79.56 215.141 80.2095 211.548C83.0353 195.872 91.8543 182.704 105.716 173.46C118.03 165.253 133.629 160.737 149.643 160.737C165.657 160.737 181.256 165.257 193.571 173.46C207.432 182.701 216.251 195.869 219.077 211.545C219.726 215.137 218.849 218.69 216.673 221.291C215.684 222.476 214.444 223.426 213.043 224.071C211.641 224.716 210.113 225.041 208.57 225.021V225.021Z" fill="#888C95"/>
</svg>
