<svg width="114" height="57" viewBox="0 0 114 57" fill="none" xmlns="http://www.w3.org/2000/svg">
<path fill-rule="evenodd" clip-rule="evenodd" d="M21.7925 40.9075C22.4397 42.3386 22.8 43.9272 22.8 45.6C22.8 51.896 17.696 57 11.4 57C5.10395 57 0 51.896 0 45.6C0 39.304 5.10395 34.2 11.4 34.2C13.0728 34.2 14.6614 34.5603 16.0925 35.2075L29.5075 21.7925C28.8603 20.3614 28.5 18.7728 28.5 17.1C28.5 10.804 33.604 5.7 39.9 5.7C46.196 5.7 51.3 10.804 51.3 17.1C51.3 18.7728 50.9397 20.3614 50.2925 21.7925L63.7075 35.2075C65.1386 34.5603 66.7272 34.2 68.4 34.2C70.0728 34.2 71.6614 34.5603 73.0925 35.2075L92.2075 16.0925C91.5603 14.6614 91.2 13.0728 91.2 11.4C91.2 5.10395 96.304 0 102.6 0C108.896 0 114 5.10395 114 11.4C114 17.696 108.896 22.8 102.6 22.8C100.927 22.8 99.3386 22.4397 97.9075 21.7925L78.7925 40.9075C79.4397 42.3386 79.8 43.9272 79.8 45.6C79.8 51.896 74.696 57 68.4 57C62.1039 57 57 51.896 57 45.6C57 43.9272 57.3603 42.3386 58.0075 40.9075L44.5925 27.4925C43.1614 28.1397 41.5728 28.5 39.9 28.5C38.2272 28.5 36.6386 28.1397 35.2075 27.4925L21.7925 40.9075Z" fill="#F07167"/>
</svg>
